<svg width="96" height="16" viewBox="0 0 96 16" fill="none" xmlns="http://www.w3.org/2000/svg"><path d="M3.728 15.974a.824.824 0 01-.525-.177.917.917 0 01-.35-.937l.975-4.455a.421.421 0 00-.125-.38l-3.4-3.038a.886.886 0 01-.25-.962c.125-.354.4-.607.775-.633l4.476-.43c.15-.025.275-.101.325-.228l1.8-4.177c.15-.33.475-.557.825-.557.375 0 .7.203.825.557l1.8 4.177c.05.127.175.228.325.228l4.475.43a.859.859 0 01.775.633.915.915 0 01-.25.987L12.83 10.05a.444.444 0 00-.125.38l.975 4.456c.075.354-.05.734-.35.936-.3.228-.675.228-1 .05L8.454 13.57a.38.38 0 00-.4 0l-3.876 2.278a.996.996 0 01-.45.127z" fill="url(#paint0_linear)"/><path d="M43.475 15.974a.823.823 0 01-.525-.177.917.917 0 01-.35-.937l.975-4.455a.42.42 0 00-.125-.38l-3.4-3.038a.887.887 0 01-.25-.962c.124-.354.4-.607.775-.633l4.475-.43c.15-.025.275-.101.325-.228l1.8-4.177C47.325.227 47.65 0 48 0c.375 0 .7.203.825.557l1.8 4.177c.05.127.175.228.325.228l4.475.43a.859.859 0 01.775.633.915.915 0 01-.25.987l-3.375 3.038a.444.444 0 00-.125.38l.975 4.456c.075.354-.05.734-.35.936-.3.228-.675.228-1 .05L48.2 13.57a.38.38 0 00-.4 0l-3.875 2.278a.996.996 0 01-.45.127z" fill="url(#paint1_linear)"/><path d="M22.319 15.974a.823.823 0 01-.525-.177.917.917 0 01-.35-.937l.975-4.455a.421.421 0 00-.125-.38l-3.4-3.038a.887.887 0 01-.25-.962c.124-.354.4-.607.774-.633l4.476-.43c.15-.025.275-.101.325-.228l1.8-4.177c.15-.33.475-.557.825-.557.375 0 .7.203.825.557l1.8 4.177c.05.127.175.228.325.228l4.475.43a.859.859 0 01.775.633.915.915 0 01-.25.987L31.42 10.05a.444.444 0 00-.125.38l.975 4.456c.075.354-.05.734-.35.936-.3.228-.675.228-1 .05l-3.875-2.303a.38.38 0 00-.4 0l-3.875 2.278a.996.996 0 01-.45.127z" fill="url(#paint2_linear)"/><path d="M63.348 15.974a.824.824 0 01-.525-.177.917.917 0 01-.35-.937l.975-4.455a.421.421 0 00-.125-.38l-3.4-3.038a.886.886 0 01-.25-.962c.125-.354.4-.607.775-.633l4.475-.43c.15-.025.275-.101.325-.228l1.8-4.177c.15-.33.475-.557.825-.557.375 0 .7.203.825.557l1.8 4.177c.05.127.175.228.325.228l4.476.43a.859.859 0 01.775.633.915.915 0 01-.25.987l-3.376 3.038a.444.444 0 00-.125.38l.976 4.456c.075.354-.05.734-.35.936-.3.228-.676.228-1 .05l-3.876-2.303a.38.38 0 00-.4 0l-3.875 2.278a.996.996 0 01-.45.127z" fill="url(#paint3_linear)"/><path d="M83.221 15.974a.823.823 0 01-.525-.177.917.917 0 01-.35-.937l.975-4.455a.421.421 0 00-.125-.38l-3.4-3.038a.886.886 0 01-.25-.962c.125-.354.4-.607.775-.633l4.475-.43c.15-.025.275-.101.325-.228l1.8-4.177c.15-.33.475-.557.825-.557.375 0 .7.203.825.557l1.8 4.177c.05.127.175.228.326.228l4.475.43a.859.859 0 01.775.633.915.915 0 01-.25.987l-3.375 3.038a.444.444 0 00-.125.38l.975 4.456c.075.354-.05.734-.35.936-.3.228-.675.228-1 .05l-3.876-2.303a.38.38 0 00-.4 0l-3.875 2.278a.996.996 0 01-.45.127z" fill="url(#paint4_linear)"/><defs><linearGradient id="paint0_linear" x1=".024" y1="8" x2="95.969" y2="8" gradientUnits="userSpaceOnUse"><stop offset=".016" stop-color="#E7A28F"/><stop offset=".5" stop-color="#FBDDB0"/><stop offset=".984" stop-color="#FBFEFD"/></linearGradient><linearGradient id="paint1_linear" x1=".024" y1="8" x2="95.969" y2="8" gradientUnits="userSpaceOnUse"><stop offset=".016" stop-color="#E7A28F"/><stop offset=".5" stop-color="#FBDDB0"/><stop offset=".984" stop-color="#FBFEFD"/></linearGradient><linearGradient id="paint2_linear" x1=".024" y1="8" x2="95.969" y2="8" gradientUnits="userSpaceOnUse"><stop offset=".016" stop-color="#E7A28F"/><stop offset=".5" stop-color="#FBDDB0"/><stop offset=".984" stop-color="#FBFEFD"/></linearGradient><linearGradient id="paint3_linear" x1=".024" y1="8" x2="95.969" y2="8" gradientUnits="userSpaceOnUse"><stop offset=".016" stop-color="#E7A28F"/><stop offset=".5" stop-color="#FBDDB0"/><stop offset=".984" stop-color="#FBFEFD"/></linearGradient><linearGradient id="paint4_linear" x1=".024" y1="8" x2="95.969" y2="8" gradientUnits="userSpaceOnUse"><stop offset=".016" stop-color="#E7A28F"/><stop offset=".5" stop-color="#FBDDB0"/><stop offset=".984" stop-color="#FBFEFD"/></linearGradient></defs></svg>