<?xml version="1.0" standalone="no"?>
<!DOCTYPE svg PUBLIC "-//W3C//DTD SVG 20010904//EN"
 "http://www.w3.org/TR/2001/REC-SVG-20010904/DTD/svg10.dtd">
<svg version="1.0" xmlns="http://www.w3.org/2000/svg"
 width="807.000000pt" height="295.000000pt" viewBox="0 0 807.000000 295.000000"
 preserveAspectRatio="xMidYMid meet">

<g transform="translate(0.000000,295.000000) scale(0.100000,-0.100000)"
fill="white" stroke="none">
<path fill="white" d="M0 1475 l0 -1475 4035 0 4035 0 0 1475 0 1475 -4035 0 -4035 0 0
-1475z m5437 83 c91 -219 168 -398 172 -398 3 0 27 51 53 113 26 61 97 231
158 377 60 146 115 275 120 288 9 22 12 22 199 22 104 0 192 -3 194 -7 2 -5
-45 -118 -105 -253 -60 -135 -124 -279 -142 -320 -18 -41 -75 -168 -126 -283
l-93 -207 -259 2 -260 3 -43 95 c-50 110 -231 516 -285 640 -21 47 -59 132
-85 190 -26 58 -49 113 -52 123 -5 16 7 17 191 15 l197 -3 166 -397z m-4304
330 c13 -35 75 -187 136 -338 62 -151 126 -312 143 -358 17 -46 34 -79 38 -75
5 4 18 31 29 58 l22 51 -125 309 c-68 171 -134 332 -145 358 -16 36 -18 49 -8
53 7 2 111 3 232 2 l219 -3 49 -115 c26 -63 70 -169 96 -235 44 -110 139 -342
240 -589 22 -54 39 -102 37 -105 -2 -3 -85 -5 -184 -3 l-180 3 -57 142 c-32
78 -71 177 -88 220 -17 43 -33 74 -37 70 -4 -4 -15 -31 -25 -59 l-18 -52 65
-160 c36 -89 64 -162 63 -164 -2 -2 -110 -1 -240 2 l-237 5 -18 45 c-9 25 -52
131 -95 235 -42 105 -104 258 -137 340 -32 83 -65 164 -73 180 -19 42 -95 234
-95 240 0 3 83 5 184 5 l184 0 25 -62z m1050 55 c2 -5 -28 -85 -67 -180 -39
-94 -84 -203 -100 -242 -15 -39 -32 -71 -35 -71 -8 0 -201 473 -201 490 0 12
397 14 403 3z m1959 -4 c115 -25 209 -97 263 -205 28 -56 30 -66 30 -179 0
-111 -2 -125 -29 -183 -27 -58 -121 -162 -147 -162 -19 0 -7 -24 81 -167 50
-80 90 -147 90 -149 0 -2 -94 -4 -209 -4 l-208 0 -79 130 -78 130 -148 0 -148
0 0 -130 0 -130 -180 0 -180 0 0 530 0 530 445 0 c291 0 462 -4 497 -11z m698
-519 l0 -530 -180 0 -180 0 0 530 0 530 180 0 180 0 0 -530z m2147 375 c81
-85 153 -155 159 -155 5 0 77 70 158 155 l148 155 236 0 237 0 -265 -265 -265
-265 263 -261 c144 -143 262 -263 262 -265 0 -2 -105 -4 -232 -4 l-233 0 -155
161 -155 162 -154 -162 -153 -161 -237 0 -236 0 265 265 265 265 -265 265
-265 265 237 0 236 0 149 -155z"/>
<path fill="#204af2" d="M3560 1550 l0 -101 240 3 c234 3 240 4 262 26 18 17 23 34 23 72 0
38 -5 55 -23 72 -22 22 -28 23 -262 26 l-240 3 0 -101z"/>
</g>
</svg>
