<svg width="49" height="49" viewBox="0 0 49 49" fill="none" xmlns="http://www.w3.org/2000/svg"><path fill-rule="evenodd" clip-rule="evenodd" d="M40.602 11.465c-.428.584-3.834 4.981-11.349 8.071a63.436 63.436 0 011.787 4.021c6.762-.856 13.482.516 14.152.659a20.46 20.46 0 00-4.59-12.75zm-20.91-7.072c.569.77 4.311 5.912 7.688 12.172 7.327-2.771 10.429-6.978 10.8-7.51-3.64-3.259-8.424-5.24-13.66-5.24a20.4 20.4 0 00-4.829.578zM4.39 20.389c.925.012 9.449.047 19.126-2.44-3.428-5.9-7.125-10.86-7.67-11.584C10.057 9.008 5.73 14.174 4.39 20.389zM9.072 38.24c.468-.793 6.147-10.088 16.817-13.498.27-.086.542-.167.815-.243a68.054 68.054 0 00-1.677-3.472c-10.332 3.057-20.358 2.93-21.263 2.911-.007.208-.011.416-.011.625 0 5.254 2.014 10.051 5.319 13.677zm23.37 5.38c-.303-1.802-1.482-8.084-4.333-15.58l-.134.046c-11.457 4.038-15.57 12.075-15.935 12.83a20.062 20.062 0 0012.467 4.338c2.814 0 5.496-.583 7.935-1.633zm12.113-15.67c-.7-.217-6.336-1.868-12.75-.86 2.677 7.23 3.766 13.116 3.976 14.34 4.592-3.05 7.861-7.884 8.774-13.48zM24.472 48.442C11.289 48.442.564 37.718.564 24.535S11.29.627 24.472.627c13.183 0 23.908 10.725 23.908 23.908 0 13.183-10.725 23.907-23.908 23.907z" fill="url(#paint0_linear)"/><defs><linearGradient id="paint0_linear" x1="10.5" y1="46" x2="41.5" y2="12" gradientUnits="userSpaceOnUse"><stop offset=".016" stop-color="#F78C91"/><stop offset=".504" stop-color="#F5C3BB"/><stop offset=".984" stop-color="#F5E3DC"/></linearGradient></defs></svg>