<svg width="20" height="16" viewBox="0 0 20 16" fill="none" xmlns="http://www.w3.org/2000/svg">
  <path d="M19.7742 2.79999C19.6629 2.13332 19.3709 1.53332 18.9335 1.06666C18.4961 0.599995 17.9335 0.299995 17.3335 0.199995C15.9709 -0.0333386 10 0.000661748 10 0.000661748C10 0.000661748 4.02913 -0.0333386 2.66658 0.199995C2.06658 0.299995 1.50392 0.599995 1.06658 1.06666C0.629127 1.53332 0.337097 2.13332 0.225806 2.79999C0 4.33332 0 8.00066 0 8.00066C0 8.00066 0 11.6667 0.225806 13.2C0.337097 13.8667 0.629127 14.4667 1.06658 14.9333C1.50392 15.4 2.06658 15.7 2.66658 15.8C4.02913 16.0333 10 16 10 16C10 16 15.9709 16.0333 17.3335 15.8C17.9335 15.7 18.4961 15.4 18.9335 14.9333C19.3709 14.4667 19.6629 13.8667 19.7742 13.2C20 11.6667 20 8.00066 20 8.00066C20 8.00066 20 4.33332 19.7742 2.79999ZM8 10.6667V5.33332L13.3335 8L8 10.6667Z" fill="white"/>
</svg>