<svg viewBox="0 0 1600 1600" width="1280" height="1280" xmlns="http://www.w3.org/2000/svg"><path d="M0 0h1600v1600H0z" fill="#1C47F6"/><path d="M352 510h219l3 3 18 45 30 74 13 32 21 52 15 37 11 28 16 39 16 40 16 39 12 30 23 57 7 17 2 1 3-11 9-22 15-36 1-2-10-24-18-44-50-125-16-39-38-95-14-34-12-31-11-27v-3l69-1h36l166 1 4 4 12 29 8 20 10 23 11 25 23 57 11 27 8 20 14 34 12 30 31 76 13 32 18 45 24 58 12 30 15 37 13 32 11 27 4 9v3l-215 1-5-8-19-47-25-62-13-32-36-89-10-26v-3l-2 1-5 14-18 43-5 12 2 9 10 24 14 34 13 33 14 34 12 30 12 29v4H605l-4-4-7-15-12-30-10-24-15-38-15-37-14-34-28-70-18-44-11-27-15-37-11-27-20-50-14-34-25-62-13-32-12-30-9-21zm613 1h243l-1 6-15 36-12 30-10 24-14 34-17 41-20 49-14 34-18 44-3-1-20-49-21-52-26-65-19-47-13-32-14-35-6-16z" fill="#FCFDFD"/></svg>