<svg width="120" height="121" viewBox="0 0 120 121" fill="none" xmlns="http://www.w3.org/2000/svg"><path d="M70.635.934l-3.32 7.475-1.14-.104-.83-4.464-1.66 4.36-1.14-.104L60.676 0l1.556.104 1.245 5.606 1.66-4.257 1.14.104.83 4.464L69.39.727l1.245.207zm5.083 8.098l-.312 1.245-4.77-1.245 1.97-7.579 4.668 1.142-.312 1.246-3.319-.83-.518 2.076 2.904.726-.311 1.142-2.905-.726-.518 1.868 3.423.935zm7.052 1.661c-.414 1.038-1.555 1.764-3.007 1.142l-3.008-1.246 2.904-7.267 2.8 1.142c1.245.519 1.764 1.557 1.349 2.699-.311.623-.83 1.142-1.66 1.142.83.519.934 1.557.623 2.388zm-1.244-.623c.208-.52.104-1.142-.726-1.454l-1.556-.623-.83 2.077 1.556.623c.726.207 1.349-.104 1.556-.623zm-1.14-4.983l-.727 1.765 1.452.622c.519.208.934 0 1.141-.519.208-.519.104-1.038-.518-1.245l-1.349-.623zm3.422 6.021l1.244.623c-.31.519 0 1.245.726 1.66.726.416 1.349.208 1.66-.31.311-.52 0-.935-.519-1.454l-.726-.727c-1.245-1.142-1.037-2.18-.726-2.803.623-1.245 2.178-1.453 3.423-.726 1.245.726 1.763 1.972 1.14 3.322l-1.244-.623c.311-.52.104-1.246-.518-1.557-.623-.312-1.245-.208-1.556.311-.104.208-.311.623.415 1.246l.726.623c.933.934 1.452 1.868.83 3.01-.727 1.246-2.179 1.454-3.527.727-1.556-.727-1.97-2.18-1.348-3.322zm9.127-1.038l1.141.726-4.356 6.437-1.141-.727 4.356-6.436zm6.431 6.332l-1.763-1.453-4.149 5.087-1.037-.83 4.149-5.088-1.764-1.453.83-.934 4.564 3.737-.83.934zm.83 8.513l-.934.83-3.423-3.53 5.601-5.397 3.319 3.425-.933.83-2.282-2.387-1.556 1.454 2.075 2.18-.934.83-2.074-2.18-1.453 1.35 2.594 2.595zm1.556.104l.83 1.038c-.519.415-.519 1.142 0 1.869.518.623 1.141.726 1.659.415.415-.312.415-.934.104-1.557l-.415-.935c-.622-1.557 0-2.387.519-2.803 1.141-.83 2.489-.415 3.423.727.829 1.142.829 2.595-.311 3.426l-.83-1.038c.518-.416.622-1.038.103-1.661-.414-.52-1.037-.727-1.555-.312-.208.104-.519.416-.104 1.35l.415.934c.518 1.142.518 2.284-.519 3.115-1.141.83-2.593.519-3.526-.727-1.038-1.453-.934-3.01.207-3.841zm8.402 12.665c.933-.415 1.867.104 2.178.934.311.83 0 1.869-.83 2.284-.933.415-1.867-.104-2.282-.934-.415-.83 0-1.869.934-2.284zm3.733 17.129l-.415-3.01-1.97-.416-.208-1.453 8.091 1.972.207 1.453-7.364 3.842-.208-1.454 1.867-.934zm1.141-.52l3.008-1.453-3.215-.726.207 2.18zm2.386 9.344c-1.245 0-2.49-.727-2.49-2.492v-1.764h-2.8v-1.35l7.779.104-.104 3.114c.104 1.661-1.141 2.388-2.385 2.388zm0-1.453c.622 0 1.244-.312 1.244-1.039v-1.764h-2.489v1.66c0 .831.622 1.143 1.245 1.143zm-.83 8.72c-1.245-.208-2.386-1.038-2.178-2.803l.207-1.765-2.801-.415.208-1.35 7.675 1.038-.414 3.115c-.104 1.765-1.453 2.388-2.697 2.18zm.207-1.35c.623.104 1.245-.103 1.349-.934l.207-1.765-2.489-.311-.208 1.66c-.103.831.519 1.247 1.141 1.35zm1.867 3.634l-.311 1.349-6.327-1.557-.726 2.907-1.245-.312 1.037-4.256 7.572 1.868zm-1.763 5.917l-.415 1.35-7.364-2.492.415-1.35 7.364 2.492zm-4.563 1.765c1.97.934 2.904 3.322 1.97 5.294-.518 1.142-1.555 1.869-2.696 2.18l-.312-1.246c.726-.207 1.453-.623 1.764-1.453.622-1.35 0-2.907-1.349-3.53-1.348-.622-2.904-.103-3.526 1.246-.311.727-.311 1.557.103 2.284l-1.141.623c-.518-1.038-.622-2.284-.103-3.426.933-2.076 3.215-2.907 5.29-1.972zm-7.78 10.173l1.66-2.595-1.245-1.661.83-1.246 4.979 6.748-.83 1.246-8.09-1.765.829-1.246 1.867.52zm1.245.312l3.215.83-2.074-2.595-1.141 1.765zm-2.282 8.512l1.452-1.764-5.083-4.153.83-1.038 5.082 4.152 1.453-1.764.933.83-3.734 4.464-.933-.727zm-.311 2.077l-.934.934-5.497-5.502.934-.934 5.497 5.502zm-4.979-.52c1.349 1.765 1.141 4.153-.622 5.606-1.763 1.35-4.15 1.142-5.601-.623-1.349-1.764-1.141-4.256.518-5.605 1.867-1.35 4.357-1.039 5.705.622zm-5.082 4.153c.933 1.142 2.593 1.453 3.734.519 1.14-.934 1.244-2.595.31-3.737-.933-1.142-2.488-1.454-3.733-.519-1.141.934-1.245 2.491-.311 3.737zm-5.601 8.097l-3.941-6.747 1.037-.623 5.29 3.01-2.593-4.568 1.244-.726 3.942 6.748-1.141.622-5.29-3.01 2.593 4.464-1.14.83zm-4.149-4.152l-1.245.519c-.207-.519-.933-.831-1.763-.519-.726.311-1.037.934-.83 1.453.208.519.726.623 1.453.519l1.037-.104c1.66-.207 2.385.623 2.593 1.246.518 1.246-.208 2.596-1.556 3.115-1.348.519-2.697.207-3.215-1.142l1.244-.519c.208.622.83.83 1.556.519.623-.208.934-.831.726-1.454-.103-.207-.311-.623-1.245-.519l-.933.104c-1.245.104-2.386-.104-2.8-1.246-.52-1.349.207-2.595 1.555-3.218 1.453-.519 2.905.104 3.423 1.246zm-14.417 4.983c.103.934-.623 1.765-1.556 1.868-.934.104-1.867-.519-1.97-1.453-.105-.934.621-1.765 1.555-1.869.933-.207 1.867.416 1.97 1.454zm-20.848-3.322l-.208 5.294 2.8-3.945 1.142.208 1.348 4.672 1.452-5.087 1.349.207-2.178 7.579-1.142-.208-1.659-5.71-3.32 4.88-1.14-.208.311-7.89 1.245.208zm-3.32 3.218c-.726 2.076-3.008 3.218-5.082 2.388-2.075-.727-3.112-3.011-2.386-5.087.726-2.076 3.008-3.218 5.083-2.388 2.074.727 3.111 3.011 2.385 5.087zm-6.223-2.18c-.519 1.453.104 2.907 1.556 3.426 1.348.519 2.8-.312 3.319-1.661.519-1.35-.104-2.907-1.452-3.426-1.452-.519-2.904.208-3.423 1.661zm-7.053-5.502c.518-.934 1.763-1.557 3.111-.831l2.905 1.558-3.734 6.851-2.697-1.453c-1.245-.623-1.556-1.765-1.037-2.803.31-.519.83-1.038 1.66-.934-.623-.623-.623-1.661-.208-2.388zm1.763 5.917l.933-1.661-1.452-.726c-.518-.312-.933-.104-1.244.415-.208.519-.208 1.038.31 1.246l1.453.726zm-.622-5.087c-.312.519-.208 1.142.518 1.558l1.452.83 1.038-1.972-1.453-.831c-.622-.415-1.244-.104-1.555.415zm-5.498 2.907l-1.14-.726 4.356-6.437 1.14.727-4.355 6.436zm-3.215-2.18l-1.038-.83 4.046-5.087-2.386-1.869.726-.934 3.423 2.803-4.771 5.917zM20.33 96.13l.83-.83 3.422 3.425-5.497 5.502-3.423-3.425.83-.83 2.385 2.387 1.452-1.454-2.074-2.076.933-.934 2.075 2.076 1.556-1.35-2.49-2.49zm-6.95-6.852c-.83.52-1.867.104-2.282-.726-.518-.83-.31-1.869.519-2.388.83-.519 1.867-.104 2.386.623.415.934.207 1.972-.623 2.491zM2.8 78.275l-.414-1.35 7.468-2.284.415 1.35L2.8 78.275zm-1.037-3.738l-.31-1.35 6.43-1.349-.622-3.01 1.244-.208.83 4.256-7.572 1.661zM.519 68.412l-.104-1.35 6.534-.726-.31-3.01 1.244-.104.415 4.36-7.78.83zm4.563-5.917L0 62.39v-1.35l4.979.104c1.14 0 1.66-.726 1.66-1.557 0-.83-.416-1.557-1.557-1.557l-4.978-.104v-1.35h5.082c1.763 0 2.8 1.454 2.8 3.011-.103 1.557-1.14 2.907-2.904 2.907zm.623-7.475l.207-1.35c.622.105 1.245-.414 1.348-1.245.104-.83-.31-1.35-.83-1.453-.518-.104-.933.311-1.244.934l-.415.934c-.622 1.661-1.66 1.765-2.386 1.661-1.348-.207-2.074-1.557-1.867-2.906.208-1.454 1.245-2.388 2.697-2.18l-.207 1.35c-.623-.105-1.141.31-1.245 1.037-.104.623.208 1.246.83 1.35.207 0 .726 0 1.037-.83l.415-.935c.519-1.142 1.245-1.973 2.49-1.869 1.451.208 2.177 1.557 1.97 3.01-.207 1.766-1.452 2.7-2.8 2.492zm-1.66-12.768l-.622 2.18 6.327 1.66-.311 1.35-6.327-1.66-.622 2.18-1.141-.312L2.8 42.044l1.244.208zm4.771-2.284l-.31.622 2.592 1.039-.519 1.245-7.26-2.906 1.14-2.803c.623-1.661 2.075-1.869 3.216-1.35 1.038.415 1.764 1.35 1.556 2.7l3.423-.831-.622 1.557-3.216.727zm-1.348.207l.518-1.245c.415-.935 0-1.454-.622-1.765-.622-.312-1.348-.104-1.66.623l-.622 1.453 2.386.934zm6.327-8.097l-1.556 2.699 1.349 1.557-.726 1.246-5.29-6.436.726-1.246 8.194 1.35-.726 1.245-1.97-.415zm-1.245-.208l-3.319-.623 2.178 2.492 1.141-1.869zm1.764-8.72l-1.349 1.765 5.29 3.841-.83 1.142-5.29-3.841-1.348 1.765-1.037-.727 3.423-4.671 1.14.726zm.207-1.972l.934-1.038 5.808 5.19-.933 1.038-5.809-5.19zm4.875.103c-1.452-1.66-1.452-4.152.208-5.605 1.66-1.454 4.149-1.35 5.6.311 1.453 1.661 1.35 4.153-.207 5.606-1.66 1.557-4.149 1.35-5.6-.312zm4.875-4.36c-1.037-1.142-2.593-1.245-3.734-.311-1.14 1.038-1.037 2.595-.104 3.737.934 1.142 2.593 1.246 3.735.311 1.037-1.038 1.037-2.595.103-3.737zm5.083-8.408l4.252 6.54-1.037.726-5.497-2.699 2.904 4.36-1.141.727-4.253-6.54 1.038-.727 5.393 2.7-2.904-4.36 1.245-.727zm4.46 3.841l1.245-.623c.31.519 1.037.83 1.763.415.726-.312.933-.934.726-1.557-.207-.52-.83-.623-1.452-.415l-1.037.207c-1.66.312-2.386-.415-2.697-1.038-.622-1.246.104-2.595 1.348-3.218 1.245-.623 2.697-.312 3.32 1.038l-1.245.623c-.311-.623-.934-.83-1.556-.52-.622.312-.934.935-.622 1.454.103.208.31.623 1.244.415l.934-.207c1.244-.208 2.385 0 2.904 1.038.622 1.246 0 2.595-1.452 3.322-1.349.727-2.8.207-3.423-.934zm14.106-5.71c-.208-.934.518-1.765 1.452-1.973.933-.207 1.867.416 2.074 1.35.208.934-.518 1.869-1.452 1.972-.934.104-1.867-.415-2.074-1.35z" fill="#80808E"/></svg>