<svg width="74" height="27" viewBox="0 0 74 27" fill="none" xmlns="http://www.w3.org/2000/svg"><path d="M.27 27v-5.17h1.115c.868 0 1.55-.274 2.046-.82.521-.57.781-1.314.781-2.231 0-.744-.173-1.612-.52-2.604H.083V12.38H2.39c-.596-1.686-.893-3.112-.893-4.278 0-2.256.868-4.067 2.604-5.43C5.86 1.281 8.143.587 10.946.587c2.058 0 3.93.446 5.617 1.34 1.686.867 2.84 2.244 3.46 4.128L14.925 8.4c-.546-1.513-1.711-2.27-3.497-2.27-1.215 0-2.157.323-2.827.968-.645.62-.967 1.513-.967 2.678 0 .695.21 1.563.632 2.604h7.85v3.795H9.717c.198.719.298 1.45.298 2.195 0 1.388-.335 2.542-1.005 3.46h10.23V27H.27zm21.688 0v-3.46l6.621-6.658.968-.968 1.004-1.004c.198-.198.484-.496.856-.893.396-.397.682-.694.855-.893l.67-.855c.297-.347.508-.633.632-.856.124-.248.26-.508.41-.781.148-.298.247-.583.297-.856a2.97 2.97 0 00.111-.78 2.94 2.94 0 00-.892-2.158c-.596-.62-1.401-.93-2.418-.93-.918 0-1.687.26-2.307.78-.62.497-1.004 1.228-1.153 2.196l-5.245-1.526c.397-2.232 1.426-3.918 3.087-5.059 1.687-1.14 3.67-1.711 5.953-1.711 2.653 0 4.835.707 6.547 2.12 1.71 1.39 2.566 3.162 2.566 5.32 0 .918-.173 1.848-.52 2.79-.323.918-.806 1.823-1.451 2.716a39.502 39.502 0 01-1.637 2.083 50.971 50.971 0 01-1.785 1.86l-4.316 4.352h9.821V27H21.958zM65.462.96h7.552V27h-6.101V12.343L61.259 27H56.05l-5.692-14.694V27h-6.1V.96h7.55l6.846 17.112L65.462.96z" fill="#02021E"/></svg>