<svg width="29" height="18" viewBox="0 0 29 18" fill="none" xmlns="http://www.w3.org/2000/svg"><path d="M25.413 3.1h-7.026V1.37h7.026V3.1zm-11.704 7.095c.454.696.68 1.541.68 2.534 0 1.026-.255 1.946-.775 2.76a4.8 4.8 0 01-1.234 1.358c-.556.423-1.213.713-1.97.868-.757.156-1.578.234-2.462.234H.09V.652h8.426c2.124.035 3.63.645 4.519 1.843.533.734.798 1.616.798 2.641 0 1.057-.268 1.904-.807 2.546-.3.36-.742.689-1.328.985.888.322 1.561.83 2.011 1.528zM4.114 7.472h3.692c.758 0 1.372-.143 1.844-.43.472-.284.708-.792.708-1.52 0-.805-.312-1.339-.937-1.596-.538-.178-1.226-.27-2.06-.27H4.114v3.816zm6.6 5.01c0-.9-.371-1.52-1.11-1.853-.414-.19-.997-.287-1.745-.294H4.114v4.61H7.8c.757 0 1.343-.098 1.767-.303.763-.378 1.145-1.095 1.145-2.16zm17.305-2.815c.085.566.124 1.387.108 2.46h-9.1c.05 1.246.485 2.116 1.307 2.615.496.312 1.097.465 1.801.465.742 0 1.348-.186 1.813-.569.254-.202.478-.489.672-.85h3.335c-.088.736-.49 1.482-1.21 2.24-1.119 1.204-2.687 1.809-4.701 1.809-1.664 0-3.13-.51-4.403-1.525-1.268-1.02-1.905-2.671-1.905-4.964 0-2.149.572-3.794 1.72-4.94 1.152-1.146 2.638-1.717 4.47-1.717 1.087 0 2.066.192 2.94.579.87.387 1.59.997 2.157 1.835.512.738.842 1.59.996 2.562zm-3.282.323c-.062-.86-.352-1.512-.874-1.958-.518-.446-1.165-.67-1.936-.67-.84 0-1.49.24-1.95.71-.464.47-.753 1.11-.871 1.918h5.63z" fill="#80808F"/></svg>