<svg width="127" height="17" viewBox="0 0 127 17" fill="none" xmlns="http://www.w3.org/2000/svg"><path fill-rule="evenodd" clip-rule="evenodd" d="M93.457 1.57C91.332.278 88.657.238 86.274.73c-2.206.488-4.17 1.933-5.221 3.9-1.176 2.186-1.428 4.77-1.09 7.194.344 2.286 2.17 4.222 4.446 4.792 3.095.747 6.725.3 9.103-1.933 2.122-2.015 2.791-5.064 2.674-7.867.019-2.036-.934-4.147-2.729-5.245zm-7.952 6.84c.294-1.326.673-2.927 2.037-3.571 1.205-.607 2.89.015 3.104 1.404.297 1.717-.153 3.519-.87 5.089-.637 1.426-2.824 2.023-3.926.782-.756-1.024-.548-2.377-.367-3.558l.022-.145zM104.01.486c-1.95.119-4.057.882-5.07 2.624-1.218 2.086-1.033 5.195 1.086 6.66.694.53 1.515.794 2.336 1.059.491.158.983.317 1.447.532.756.354.631 1.586-.181 1.79-1.087.381-2.177-.27-2.728-1.177-.735.203-1.471.397-2.207.591-.8.212-1.6.423-2.399.645.443 1.673 1.833 2.99 3.55 3.372 2.439.572 5.151.506 7.436-.582 3.136-1.476 3.621-6.487.676-8.386-.714-.518-1.545-.783-2.377-1.048-.565-.18-1.13-.36-1.658-.619-.921-.385-.469-1.77.433-1.833.842-.225 1.514.42 2.021.982.577-.156 1.154-.31 1.732-.463h.001c.969-.258 1.937-.516 2.901-.788l-.023-.058c-.318-.793-.658-1.64-1.392-2.153C108.02.438 105.91.376 104.01.485zM0 16.593C.937 11.326 1.874 6.062 2.814.798h1.33C5.474.796 6.804.795 8.134.8a906.17 906.17 0 01-.402 2.187 580.152 580.152 0 00-.628 3.44h4.43l.291-1.57c.252-1.35.503-2.699.732-4.05C14.336.791 16.114.794 17.89.803l-.155.869v.002c-.882 4.97-1.765 9.944-2.656 14.918H14.012c-1.416 0-2.83.001-4.248-.006.341-1.955.689-3.907 1.043-5.858H9.7c-1.11-.001-2.22-.002-3.332.003-.173.956-.343 1.913-.513 2.87-.178.997-.355 1.995-.536 2.991H0zM22.292.72h-1.521c-.236 1.312-.475 2.622-.714 3.933-.324 1.773-.648 3.545-.963 5.32-.27 1.639-.194 3.487.87 4.86 1.16 1.48 3.159 1.99 4.979 2.071 2.103.056 4.379-.025 6.205-1.18 1.67-1.056 2.403-3.011 2.747-4.847.308-1.692.608-3.385.909-5.078.3-1.693.6-3.386.908-5.078L33.72.72c-1.108 0-2.215 0-3.323-.005-.273 1.346-.506 2.7-.74 4.054-.368 2.14-.736 4.278-1.261 6.383-.252 1.536-2.27 2.33-3.513 1.357-.744-.69-.591-1.795-.464-2.711l.024-.179c.404-2.223.819-4.446 1.233-6.668v-.002L26.09.723C24.825.717 23.56.719 22.293.72zm13.484 15.873c.436-2.434.869-4.87 1.301-7.306l.001-.005c.502-2.829 1.004-5.657 1.512-8.484h11.455a674.774 674.774 0 01-.765 4.307c-.97-.006-1.938-.005-2.908-.005-1.077 0-2.153.001-3.23-.007-.166.938-.326 1.88-.482 2.821h.975c1.14-.002 2.28-.003 3.42.01v.002c-.245 1.35-.49 2.7-.733 4.051-1.463.003-2.925.003-4.392.003-.112.616-.222 1.231-.332 1.847-.165.923-.33 1.846-.502 2.77-1.773-.004-3.548-.004-5.32-.004zM55.173.798h-2.865c-.947 5.264-1.88 10.531-2.811 15.799 1.769-.004 3.538-.004 5.306-.004.284-1.532.552-3.068.813-4.607 1.18-.007 2.359-.007 3.538-.006h.886l.32-1.794.001-.003c.136-.754.271-1.507.403-2.26a292.386 292.386 0 00-3.07-.011l-1.316-.001c.156-.942.316-1.88.475-2.818 1.195.007 2.39.007 3.584.007.853 0 1.707 0 2.56.002.155-.88.313-1.759.47-2.637l.001-.002v-.001l.001-.003L63.766.8a4662.37 4662.37 0 00-8.593-.003zM66.029.8C68.374.798 70.72.795 73.066.795c1.762.01 3.713.472 4.832 1.917 1.064 1.314 1.026 3.119.787 4.692-.271 1.742-1.265 3.428-2.888 4.26-1.655.933-3.572.898-5.432.864-.36-.007-.719-.014-1.073-.013l-.157.856a220.841 220.841 0 00-.576 3.213c-1.775.016-3.553.013-5.329.003.393-2.227.79-4.453 1.187-6.68l.002-.01c.54-3.032 1.08-6.063 1.61-9.096zm4.63 4.123c-.115.632-.234 1.262-.353 1.893-.114.603-.227 1.205-.338 1.807.185-.004.373-.002.56-.001.735.005 1.482.01 2.162-.293 1.09-.494 1.418-2.102.615-2.975-.576-.409-1.291-.412-1.986-.415-.224 0-.445-.002-.66-.016zM118.32.798c-1.796 0-3.593.002-5.389 0l-.181 1c-.199 1.097-.399 2.196-.587 3.295 1.39.01 2.782.01 4.172.003l-.231 1.31c-.599 3.395-1.197 6.787-1.793 10.185 1.332.004 2.661.004 3.992.003h1.331l.766-4.28c.43-2.406.86-4.812 1.296-7.215h.784c1.046 0 2.094-.001 3.139.006.134-.716.264-1.434.394-2.152.13-.717.26-1.435.393-2.151-2.696-.006-5.391-.005-8.086-.004z" fill="#80808F"/></svg>