<svg fill="none" height="40" viewBox="0 0 86 40" width="86" xmlns="http://www.w3.org/2000/svg"><g fill="#fff"><path d="M52.975 28.422c-2.057 1.825-4.73 2.843-7.61 2.843-6.579 0-11.315-4.668-11.315-11.366 0-6.698 4.73-11.167 11.315-11.167 2.88 0 5.553.813 7.61 2.843l1.44 1.216 6.17-6.09-1.44-1.42C55.238 2.033 50.502.003 45.364.003 33.642-.201 25 8.124 25 19.899 25 31.265 33.842 40 45.365 40c5.345 0 10.282-1.825 14.195-5.276L61 33.302l-6.578-6.493z"/><path d="M45.057 26.667c3.692 0 6.686-2.985 6.686-6.667s-2.994-6.667-6.686-6.667S38.37 16.319 38.37 20s2.993 6.667 6.686 6.667zM10.82 4.475c.85-1.348 1.219-2.602 1.219-2.602s-1.117.375-2.488 1.468C8.297 4.478 6.846 6.458 6.948 9.049c1.875-1.506 3.112-3.12 3.871-4.574zM3.661 19.442L3.59 20.5c-.013.226.14.426.365.431.216.018.41-.165.423-.383l.073-1.055c1.54-.93 2.597-2.258 3.261-3.442.336-.656.636-1.247.852-1.672.175-.45.289-.722.289-.722s-1.001.097-2.233.901c-.872.665-2.043 1.88-2.477 3.814-.003 0-.005-.003-.009-.003.015-1.995-.226-3.582-.724-4.843-.454-1.49-1.11-2.411-1.11-2.411l-.274.946c-.145.592-.334 1.403-.278 2.352.012 1.719.444 3.735 1.914 5.029z"/><path d="M4.624 13.963a.4.4 0 00.26.518c.204.065.416-.067.494-.274l.332-.974c1.678-.504 2.772-1.616 3.722-2.527a8.711 8.711 0 001.08-1.42c.258-.371.427-.59.427-.59s-1.038-.187-2.23.383c-.994.434-2.244 1.315-3.06 2.967l-.023-.007c.412-1.826.425-3.341.258-4.596-.26-1.548-.615-2.503-.615-2.503-.137-.135-2.645 4.868-.329 8.08zM6.932 32.54c.291.423.832 1.193.874 1.152.164.17.424.189.578.034a.41.41 0 00.01-.569c-.042.03-.585-.737-.859-1.128 1.415-4.426.54-7.962.695-8.2 0 0-1.126.616-1.74 2.03-.657 1.234-1.014 3.525.363 5.824-.01.007-.019.01-.027.017-.015.01-.023.026-.034.038-1.605-2.135-2.973-3.681-4.25-4.89-1.51-1.325-2.53-2.002-2.529-2.009-.083-.033.217 1.99 1.43 4.139 1.117 1.964 3.215 3.65 5.489 3.561z"/><path d="M11.872 37.211l2.557 1.603c.194.13.445.03.534-.164.094-.216 0-.44-.183-.562L12.258 36.5c-.11-2.446-.769-4.435-1.33-5.834-.52-1.554-1.143-2.554-1.1-2.599 0 0-.864.996-.978 2.709-.247 1.611.451 3.954 2.769 5.716-.016.017-.034.03-.048.052C9.157 35 7.013 34.137 5.34 33.382c-1.932-.715-3.256-1.009-3.256-1.009s.18.504.71 1.19c.54.661 1.265 1.6 2.265 2.378 1.925 1.475 4.606 2.354 6.812 1.27zM4.111 26.368l.388 1.424c.063.225.276.359.48.277a.462.462 0 00.265-.54l-.372-1.369c1.419-1.639 2.323-3.413 2.74-4.86.633-1.58.642-2.856.714-2.875 0 0-1.143.3-2.255 1.5-1.032 1.037-2.092 2.994-1.684 5.646-.028-.002-.056-.008-.084-.003-.676-2.585-1.481-4.556-2.3-6.034C1.045 17.887.13 16.948.13 16.948s-.112.448-.092 1.197a18 18 0 00.224 2.885c.508 2.114 1.618 4.516 3.85 5.338zM75.18 4.475c-.85-1.348-1.219-2.602-1.219-2.602s1.117.375 2.488 1.468c1.254 1.137 2.705 3.117 2.603 5.708-1.875-1.506-3.112-3.12-3.871-4.574zm7.158 14.967l.073 1.058c.013.226-.14.426-.365.431-.216.018-.41-.165-.423-.383l-.073-1.055c-1.54-.93-2.597-2.258-3.262-3.442l-.851-1.672c-.175-.45-.289-.722-.289-.722s1.001.097 2.233.901c.871.665 2.043 1.88 2.477 3.814.003 0 .005-.003.009-.003-.015-1.995.226-3.582.724-4.843.454-1.49 1.11-2.411 1.11-2.411l.274.946c.145.592.334 1.403.278 2.352-.012 1.719-.444 3.735-1.915 5.029z"/><path d="M81.376 13.963a.4.4 0 01-.26.518c-.204.065-.416-.067-.494-.274l-.332-.974c-1.678-.504-2.772-1.616-3.722-2.527a8.711 8.711 0 01-1.08-1.42c-.258-.371-.427-.59-.427-.59s1.038-.187 2.23.383c.994.434 2.244 1.315 3.06 2.967l.023-.007c-.412-1.826-.425-3.341-.258-4.596.26-1.548.615-2.503.615-2.503.137-.135 2.645 4.868.329 8.08zM79.068 32.54c-.291.423-.832 1.193-.874 1.152-.164.17-.424.189-.578.034a.41.41 0 01-.01-.569c.042.03.585-.737.859-1.128-1.415-4.426-.54-7.962-.695-8.2 0 0 1.126.616 1.74 2.03.656 1.234 1.014 3.525-.363 5.824.01.007.019.01.027.017.015.01.022.026.034.038 1.605-2.135 2.973-3.681 4.25-4.89 1.51-1.325 2.53-2.002 2.529-2.009.083-.033-.217 1.99-1.43 4.139-1.117 1.964-3.215 3.65-5.489 3.561z"/><path d="M74.128 37.211l-2.557 1.603c-.194.13-.445.03-.535-.164-.093-.216.002-.44.184-.562l2.522-1.588c.11-2.446.769-4.435 1.33-5.834.52-1.554 1.143-2.554 1.1-2.599 0 0 .864.996.978 2.709.247 1.611-.451 3.954-2.769 5.716.016.017.034.03.048.052 2.414-1.543 4.558-2.407 6.23-3.162 1.932-.715 3.256-1.009 3.256-1.009s-.18.504-.71 1.19c-.54.661-1.265 1.6-2.265 2.378-1.926 1.475-4.606 2.354-6.812 1.27zm7.76-10.843l-.387 1.424c-.063.225-.276.359-.48.277a.462.462 0 01-.265-.54l.372-1.369c-1.419-1.639-2.323-3.413-2.74-4.86-.633-1.58-.643-2.856-.714-2.875 0 0 1.143.3 2.255 1.5 1.032 1.037 2.092 2.994 1.683 5.646.029-.002.057-.008.085-.003.676-2.585 1.481-4.556 2.3-6.034.959-1.647 1.873-2.586 1.873-2.586s.112.448.092 1.197a18 18 0 01-.224 2.885c-.508 2.114-1.618 4.516-3.85 5.338z"/></g></svg>