<svg version="1.0" xmlns="http://www.w3.org/2000/svg" width="1076" height="393.333" viewBox="0 0 807 295"><path d="M0 147.5V295h807V0H0v147.5zm543.7-8.3c9.1 21.9 16.8 39.8 17.2 39.8.3 0 2.7-5.1 5.3-11.3 2.6-6.1 9.7-23.1 15.8-37.7 6-14.6 11.5-27.5 12-28.8.9-2.2 1.2-2.2 19.9-2.2 10.4 0 19.2.3 19.4.7.2.5-4.5 11.8-10.5 25.3s-12.4 27.9-14.2 32c-1.8 4.1-7.5 16.8-12.6 28.3l-9.3 20.7-25.9-.2-26-.3-4.3-9.5c-5-11-23.1-51.6-28.5-64-2.1-4.7-5.9-13.2-8.5-19-2.6-5.8-4.9-11.3-5.2-12.3-.5-1.6.7-1.7 19.1-1.5l19.7.3 16.6 39.7zm-430.4-33c1.3 3.5 7.5 18.7 13.6 33.8 6.2 15.1 12.6 31.2 14.3 35.8 1.7 4.6 3.4 7.9 3.8 7.5.5-.4 1.8-3.1 2.9-5.8l2.2-5.1-12.5-30.9c-6.8-17.1-13.4-33.2-14.5-35.8-1.6-3.6-1.8-4.9-.8-5.3.7-.2 11.1-.3 23.2-.2l21.9.3 4.9 11.5c2.6 6.3 7 16.9 9.6 23.5 4.4 11 13.9 34.2 24 58.9 2.2 5.4 3.9 10.2 3.7 10.5-.2.3-8.5.5-18.4.3l-18-.3-5.7-14.2c-3.2-7.8-7.1-17.7-8.8-22-1.7-4.3-3.3-7.4-3.7-7-.4.4-1.5 3.1-2.5 5.9l-1.8 5.2 6.5 16c3.6 8.9 6.4 16.2 6.3 16.4-.2.2-11 .1-24-.2l-23.7-.5-1.8-4.5c-.9-2.5-5.2-13.1-9.5-23.5-4.2-10.5-10.4-25.8-13.7-34-3.2-8.3-6.5-16.4-7.3-18-1.9-4.2-9.5-23.4-9.5-24 0-.3 8.3-.5 18.4-.5h18.4l2.5 6.2zm105-5.5c.2.5-2.8 8.5-6.7 18-3.9 9.4-8.4 20.3-10 24.2-1.5 3.9-3.2 7.1-3.5 7.1-.8 0-20.1-47.3-20.1-49 0-1.2 39.7-1.4 40.3-.3zm195.9.4c11.5 2.5 20.9 9.7 26.3 20.5 2.8 5.6 3 6.6 3 17.9 0 11.1-.2 12.5-2.9 18.3-2.7 5.8-12.1 16.2-14.7 16.2-1.9 0-.7 2.4 8.1 16.7 5 8 9 14.7 9 14.9 0 .2-9.4.4-20.9.4h-20.8l-7.9-13-7.8-13H356v26h-36V100h44.5c29.1 0 46.2.4 49.7 1.1zM484 153v53h-36V100h36v53zm214.7-37.5c8.1 8.5 15.3 15.5 15.9 15.5.5 0 7.7-7 15.8-15.5l14.8-15.5h47.3L766 126.5 739.5 153l26.3 26.1c14.4 14.3 26.2 26.3 26.2 26.5 0 .2-10.5.4-23.2.4h-23.3L730 189.9l-15.5-16.2-15.4 16.2-15.3 16.1h-47.3l26.5-26.5 26.5-26.5-26.5-26.5-26.5-26.5h47.3l14.9 15.5z"/><path d="M356 140v10.1l24-.3c23.4-.3 24-.4 26.2-2.6 1.8-1.7 2.3-3.4 2.3-7.2 0-3.8-.5-5.5-2.3-7.2-2.2-2.2-2.8-2.3-26.2-2.6l-24-.3V140z"/></svg>