<svg xmlns="http://www.w3.org/2000/svg" xmlns:xlink="http://www.w3.org/1999/xlink" width="778" zoomAndPan="magnify" viewBox="0 0 583.5 262.499992" height="350" preserveAspectRatio="xMidYMid meet" version="1.0"><defs><g/></defs><g fill="#ffffff" fill-opacity="1"><g transform="translate(56.815744, 64.252843)"><g><path d="M 30.484375 -11.890625 C 30.484375 -7.773438 29.296875 -4.707031 26.921875 -2.6875 C 24.554688 -0.664062 20.773438 0.34375 15.578125 0.34375 C 10.359375 0.34375 6.566406 -0.660156 4.203125 -2.671875 C 1.847656 -4.679688 0.671875 -7.753906 0.671875 -11.890625 L 0.671875 -23.71875 L 9.484375 -23.71875 L 9.484375 -11.890625 C 9.484375 -11.054688 9.628906 -10.269531 9.921875 -9.53125 C 10.210938 -8.800781 10.800781 -8.210938 11.6875 -7.765625 C 12.570312 -7.328125 13.867188 -7.109375 15.578125 -7.109375 C 17.316406 -7.109375 18.617188 -7.332031 19.484375 -7.78125 C 20.359375 -8.238281 20.941406 -8.828125 21.234375 -9.546875 C 21.535156 -10.273438 21.6875 -11.054688 21.6875 -11.890625 L 21.6875 -23.71875 L 30.484375 -23.71875 Z M 30.484375 -11.890625 "/></g></g></g><g fill="#ffffff" fill-opacity="1"><g transform="translate(87.978842, 64.252843)"><g><path d="M 18.625 -20.65625 C 19.78125 -20.65625 20.925781 -20.535156 22.0625 -20.296875 C 23.207031 -20.066406 24.257812 -19.640625 25.21875 -19.015625 C 26.175781 -18.398438 26.941406 -17.515625 27.515625 -16.359375 C 28.097656 -15.210938 28.390625 -13.722656 28.390625 -11.890625 L 28.390625 0 L 20.25 0 L 20.25 -8.578125 C 20.25 -10.304688 19.890625 -11.566406 19.171875 -12.359375 C 18.453125 -13.148438 17.175781 -13.546875 15.34375 -13.546875 C 14.144531 -13.546875 12.953125 -13.304688 11.765625 -12.828125 C 10.585938 -12.359375 9.601562 -11.738281 8.8125 -10.96875 L 8.8125 0 L 0.671875 0 L 0.671875 -20.328125 L 8.8125 -20.328125 L 8.8125 -17.609375 C 10.03125 -18.472656 11.441406 -19.195312 13.046875 -19.78125 C 14.648438 -20.363281 16.507812 -20.65625 18.625 -20.65625 Z M 18.625 -20.65625 "/></g></g></g><g fill="#ffffff" fill-opacity="1"><g transform="translate(117.041818, 64.252843)"><g><path d="M 0.671875 -27.09375 L 8.8125 -27.09375 L 8.8125 0 L 0.671875 0 Z M 0.671875 -27.09375 "/></g></g></g><g fill="#ffffff" fill-opacity="1"><g transform="translate(126.526239, 64.252843)"><g><path d="M 14.15625 0.34375 C 11.289062 0.34375 8.820312 -0.0078125 6.75 -0.71875 C 4.6875 -1.4375 3.101562 -2.5625 2 -4.09375 C 0.894531 -5.632812 0.34375 -7.65625 0.34375 -10.15625 C 0.34375 -12.664062 0.894531 -14.691406 2 -16.234375 C 3.101562 -17.785156 4.6875 -18.910156 6.75 -19.609375 C 8.820312 -20.304688 11.289062 -20.65625 14.15625 -20.65625 C 17.050781 -20.65625 19.523438 -20.304688 21.578125 -19.609375 C 23.628906 -18.910156 25.207031 -17.785156 26.3125 -16.234375 C 27.425781 -14.691406 27.984375 -12.664062 27.984375 -10.15625 C 27.984375 -7.65625 27.425781 -5.632812 26.3125 -4.09375 C 25.207031 -2.5625 23.628906 -1.4375 21.578125 -0.71875 C 19.523438 -0.0078125 17.050781 0.34375 14.15625 0.34375 Z M 14.15625 -6.4375 C 15.96875 -6.4375 17.367188 -6.679688 18.359375 -7.171875 C 19.347656 -7.671875 19.84375 -8.664062 19.84375 -10.15625 C 19.84375 -11.644531 19.347656 -12.640625 18.359375 -13.140625 C 17.367188 -13.640625 15.96875 -13.890625 14.15625 -13.890625 C 12.351562 -13.890625 10.953125 -13.640625 9.953125 -13.140625 C 8.960938 -12.640625 8.46875 -11.644531 8.46875 -10.15625 C 8.46875 -8.664062 8.960938 -7.671875 9.953125 -7.171875 C 10.953125 -6.679688 12.351562 -6.4375 14.15625 -6.4375 Z M 14.15625 -6.4375 "/></g></g></g><g fill="#ffffff" fill-opacity="1"><g transform="translate(154.84401, 64.252843)"><g><path d="M 0.34375 -10.15625 C 0.34375 -12.664062 0.894531 -14.691406 2 -16.234375 C 3.101562 -17.785156 4.6875 -18.910156 6.75 -19.609375 C 8.820312 -20.304688 11.289062 -20.65625 14.15625 -20.65625 C 16.84375 -20.65625 19.164062 -20.347656 21.125 -19.734375 C 23.09375 -19.128906 24.660156 -18.171875 25.828125 -16.859375 C 26.992188 -15.554688 27.6875 -13.832031 27.90625 -11.6875 L 19.609375 -11.6875 C 19.296875 -12.539062 18.675781 -13.117188 17.75 -13.421875 C 16.820312 -13.734375 15.625 -13.890625 14.15625 -13.890625 C 12.351562 -13.890625 10.953125 -13.640625 9.953125 -13.140625 C 8.960938 -12.640625 8.46875 -11.644531 8.46875 -10.15625 C 8.46875 -8.664062 8.960938 -7.671875 9.953125 -7.171875 C 10.953125 -6.679688 12.351562 -6.4375 14.15625 -6.4375 C 15.625 -6.4375 16.820312 -6.585938 17.75 -6.890625 C 18.675781 -7.191406 19.296875 -7.773438 19.609375 -8.640625 L 27.90625 -8.640625 C 27.6875 -6.515625 26.992188 -4.789062 25.828125 -3.46875 C 24.660156 -2.144531 23.09375 -1.175781 21.125 -0.5625 C 19.164062 0.0390625 16.84375 0.34375 14.15625 0.34375 C 11.289062 0.34375 8.820312 -0.0078125 6.75 -0.71875 C 4.6875 -1.4375 3.101562 -2.5625 2 -4.09375 C 0.894531 -5.632812 0.34375 -7.65625 0.34375 -10.15625 Z M 0.34375 -10.15625 "/></g></g></g><g fill="#ffffff" fill-opacity="1"><g transform="translate(183.094035, 64.252843)"><g><path d="M 30.890625 -20.328125 L 19.78125 -11.890625 L 30.890625 0 L 20.390625 0 L 13.578125 -7.65625 L 8.8125 -4.171875 L 8.8125 0 L 0.671875 0 L 0.671875 -27.09375 L 8.8125 -27.09375 L 8.8125 -13.078125 L 18.359375 -20.328125 Z M 30.890625 -20.328125 "/></g></g></g><g fill="#ffffff" fill-opacity="1"><g transform="translate(214.324879, 64.252843)"><g/></g></g><g fill="#ffffff" fill-opacity="1"><g transform="translate(227.874052, 64.252843)"><g><path d="M 20.859375 -13.546875 L 12.5625 -13.546875 L 12.5625 -9.34375 C 12.5625 -8.375 12.785156 -7.644531 13.234375 -7.15625 C 13.691406 -6.675781 14.507812 -6.4375 15.6875 -6.4375 C 16.289062 -6.4375 16.835938 -6.441406 17.328125 -6.453125 C 17.816406 -6.460938 18.335938 -6.488281 18.890625 -6.53125 C 19.441406 -6.582031 20.097656 -6.664062 20.859375 -6.78125 L 20.859375 -0.171875 C 18.941406 0.171875 16.609375 0.34375 13.859375 0.34375 C 10.710938 0.34375 8.351562 -0.160156 6.78125 -1.171875 C 5.21875 -2.191406 4.4375 -3.800781 4.4375 -6 L 4.4375 -13.546875 L 0.34375 -13.546875 L 0.34375 -20.328125 L 4.4375 -20.328125 L 4.4375 -23.71875 L 12.5625 -25.75 L 12.5625 -20.328125 L 20.859375 -20.328125 Z M 20.859375 -13.546875 "/></g></g></g><g fill="#ffffff" fill-opacity="1"><g transform="translate(249.078507, 64.252843)"><g><path d="M 18.625 -20.65625 C 19.78125 -20.65625 20.925781 -20.535156 22.0625 -20.296875 C 23.207031 -20.066406 24.257812 -19.640625 25.21875 -19.015625 C 26.175781 -18.398438 26.941406 -17.515625 27.515625 -16.359375 C 28.097656 -15.210938 28.390625 -13.722656 28.390625 -11.890625 L 28.390625 0 L 20.25 0 L 20.25 -8.578125 C 20.25 -10.304688 19.890625 -11.566406 19.171875 -12.359375 C 18.453125 -13.148438 17.175781 -13.546875 15.34375 -13.546875 C 14.144531 -13.546875 12.953125 -13.304688 11.765625 -12.828125 C 10.585938 -12.359375 9.601562 -11.738281 8.8125 -10.96875 L 8.8125 0 L 0.671875 0 L 0.671875 -27.09375 L 8.8125 -27.09375 L 8.8125 -17.609375 C 10.03125 -18.472656 11.441406 -19.195312 13.046875 -19.78125 C 14.648438 -20.363281 16.507812 -20.65625 18.625 -20.65625 Z M 18.625 -20.65625 "/></g></g></g><g fill="#ffffff" fill-opacity="1"><g transform="translate(278.141471, 64.252843)"><g><path d="M 13.828125 -6.09375 C 14.816406 -6.09375 15.632812 -6.125 16.28125 -6.1875 C 16.925781 -6.257812 17.503906 -6.410156 18.015625 -6.640625 C 18.535156 -6.867188 19.066406 -7.195312 19.609375 -7.625 L 27.578125 -7.625 C 27.078125 -4.9375 25.703125 -2.9375 23.453125 -1.625 C 21.210938 -0.3125 18.003906 0.34375 13.828125 0.34375 C 11.179688 0.34375 8.84375 -0.0078125 6.8125 -0.71875 C 4.78125 -1.4375 3.191406 -2.5625 2.046875 -4.09375 C 0.910156 -5.632812 0.34375 -7.65625 0.34375 -10.15625 C 0.34375 -12.664062 0.914062 -14.691406 2.0625 -16.234375 C 3.21875 -17.785156 4.832031 -18.910156 6.90625 -19.609375 C 8.988281 -20.304688 11.40625 -20.65625 14.15625 -20.65625 C 16.957031 -20.65625 19.382812 -20.28125 21.4375 -19.53125 C 23.5 -18.789062 25.09375 -17.554688 26.21875 -15.828125 C 27.34375 -14.109375 27.90625 -11.769531 27.90625 -8.8125 L 8.640625 -8.8125 C 8.867188 -8.082031 9.242188 -7.519531 9.765625 -7.125 C 10.296875 -6.726562 10.914062 -6.457031 11.625 -6.3125 C 12.34375 -6.164062 13.078125 -6.09375 13.828125 -6.09375 Z M 14.125 -14.90625 C 13.039062 -14.90625 12.03125 -14.796875 11.09375 -14.578125 C 10.15625 -14.367188 9.460938 -13.800781 9.015625 -12.875 L 19.234375 -12.875 C 18.785156 -13.800781 18.09375 -14.367188 17.15625 -14.578125 C 16.21875 -14.796875 15.207031 -14.90625 14.125 -14.90625 Z M 14.125 -14.90625 "/></g></g></g><g fill="#ffffff" fill-opacity="1"><g transform="translate(306.391508, 64.252843)"><g/></g></g><g fill="#ffffff" fill-opacity="1"><g transform="translate(319.940681, 64.252843)"><g><path d="M 19.3125 -23.71875 C 21.113281 -23.71875 22.691406 -23.328125 24.046875 -22.546875 C 25.398438 -21.765625 26.460938 -20.691406 27.234375 -19.328125 C 28.003906 -17.960938 28.390625 -16.398438 28.390625 -14.640625 C 28.390625 -12.867188 28.003906 -11.300781 27.234375 -9.9375 C 26.460938 -8.570312 25.398438 -7.5 24.046875 -6.71875 C 22.691406 -5.945312 21.113281 -5.5625 19.3125 -5.5625 L 9.484375 -5.5625 L 9.484375 0 L 0.671875 0 L 0.671875 -23.71875 Z M 17.609375 -13.015625 C 17.910156 -13.015625 18.210938 -13.035156 18.515625 -13.078125 C 18.816406 -13.117188 19.066406 -13.253906 19.265625 -13.484375 C 19.472656 -13.710938 19.578125 -14.097656 19.578125 -14.640625 C 19.578125 -15.179688 19.472656 -15.5625 19.265625 -15.78125 C 19.066406 -16.007812 18.816406 -16.144531 18.515625 -16.1875 C 18.210938 -16.238281 17.910156 -16.265625 17.609375 -16.265625 L 9.484375 -16.265625 L 9.484375 -13.015625 Z M 17.609375 -13.015625 "/></g></g></g><g fill="#ffffff" fill-opacity="1"><g transform="translate(348.664927, 64.252843)"><g><path d="M 14.15625 0.34375 C 11.289062 0.34375 8.820312 -0.0078125 6.75 -0.71875 C 4.6875 -1.4375 3.101562 -2.5625 2 -4.09375 C 0.894531 -5.632812 0.34375 -7.65625 0.34375 -10.15625 C 0.34375 -12.664062 0.894531 -14.691406 2 -16.234375 C 3.101562 -17.785156 4.6875 -18.910156 6.75 -19.609375 C 8.820312 -20.304688 11.289062 -20.65625 14.15625 -20.65625 C 17.050781 -20.65625 19.523438 -20.304688 21.578125 -19.609375 C 23.628906 -18.910156 25.207031 -17.785156 26.3125 -16.234375 C 27.425781 -14.691406 27.984375 -12.664062 27.984375 -10.15625 C 27.984375 -7.65625 27.425781 -5.632812 26.3125 -4.09375 C 25.207031 -2.5625 23.628906 -1.4375 21.578125 -0.71875 C 19.523438 -0.0078125 17.050781 0.34375 14.15625 0.34375 Z M 14.15625 -6.4375 C 15.96875 -6.4375 17.367188 -6.679688 18.359375 -7.171875 C 19.347656 -7.671875 19.84375 -8.664062 19.84375 -10.15625 C 19.84375 -11.644531 19.347656 -12.640625 18.359375 -13.140625 C 17.367188 -13.640625 15.96875 -13.890625 14.15625 -13.890625 C 12.351562 -13.890625 10.953125 -13.640625 9.953125 -13.140625 C 8.960938 -12.640625 8.46875 -11.644531 8.46875 -10.15625 C 8.46875 -8.664062 8.960938 -7.671875 9.953125 -7.171875 C 10.953125 -6.679688 12.351562 -6.4375 14.15625 -6.4375 Z M 14.15625 -6.4375 "/></g></g></g><g fill="#ffffff" fill-opacity="1"><g transform="translate(376.982698, 64.252843)"><g><path d="M 20.859375 -13.546875 L 12.5625 -13.546875 L 12.5625 -9.34375 C 12.5625 -8.375 12.785156 -7.644531 13.234375 -7.15625 C 13.691406 -6.675781 14.507812 -6.4375 15.6875 -6.4375 C 16.289062 -6.4375 16.835938 -6.441406 17.328125 -6.453125 C 17.816406 -6.460938 18.335938 -6.488281 18.890625 -6.53125 C 19.441406 -6.582031 20.097656 -6.664062 20.859375 -6.78125 L 20.859375 -0.171875 C 18.941406 0.171875 16.609375 0.34375 13.859375 0.34375 C 10.710938 0.34375 8.351562 -0.160156 6.78125 -1.171875 C 5.21875 -2.191406 4.4375 -3.800781 4.4375 -6 L 4.4375 -13.546875 L 0.34375 -13.546875 L 0.34375 -20.328125 L 4.4375 -20.328125 L 4.4375 -23.71875 L 12.5625 -25.75 L 12.5625 -20.328125 L 20.859375 -20.328125 Z M 20.859375 -13.546875 "/></g></g></g><g fill="#ffffff" fill-opacity="1"><g transform="translate(398.187142, 64.252843)"><g><path d="M 13.828125 -6.09375 C 14.816406 -6.09375 15.632812 -6.125 16.28125 -6.1875 C 16.925781 -6.257812 17.503906 -6.410156 18.015625 -6.640625 C 18.535156 -6.867188 19.066406 -7.195312 19.609375 -7.625 L 27.578125 -7.625 C 27.078125 -4.9375 25.703125 -2.9375 23.453125 -1.625 C 21.210938 -0.3125 18.003906 0.34375 13.828125 0.34375 C 11.179688 0.34375 8.84375 -0.0078125 6.8125 -0.71875 C 4.78125 -1.4375 3.191406 -2.5625 2.046875 -4.09375 C 0.910156 -5.632812 0.34375 -7.65625 0.34375 -10.15625 C 0.34375 -12.664062 0.914062 -14.691406 2.0625 -16.234375 C 3.21875 -17.785156 4.832031 -18.910156 6.90625 -19.609375 C 8.988281 -20.304688 11.40625 -20.65625 14.15625 -20.65625 C 16.957031 -20.65625 19.382812 -20.28125 21.4375 -19.53125 C 23.5 -18.789062 25.09375 -17.554688 26.21875 -15.828125 C 27.34375 -14.109375 27.90625 -11.769531 27.90625 -8.8125 L 8.640625 -8.8125 C 8.867188 -8.082031 9.242188 -7.519531 9.765625 -7.125 C 10.296875 -6.726562 10.914062 -6.457031 11.625 -6.3125 C 12.34375 -6.164062 13.078125 -6.09375 13.828125 -6.09375 Z M 14.125 -14.90625 C 13.039062 -14.90625 12.03125 -14.796875 11.09375 -14.578125 C 10.15625 -14.367188 9.460938 -13.800781 9.015625 -12.875 L 19.234375 -12.875 C 18.785156 -13.800781 18.09375 -14.367188 17.15625 -14.578125 C 16.21875 -14.796875 15.207031 -14.90625 14.125 -14.90625 Z M 14.125 -14.90625 "/></g></g></g><g fill="#ffffff" fill-opacity="1"><g transform="translate(426.437179, 64.252843)"><g><path d="M 18.625 -20.65625 C 19.78125 -20.65625 20.925781 -20.535156 22.0625 -20.296875 C 23.207031 -20.066406 24.257812 -19.640625 25.21875 -19.015625 C 26.175781 -18.398438 26.941406 -17.515625 27.515625 -16.359375 C 28.097656 -15.210938 28.390625 -13.722656 28.390625 -11.890625 L 28.390625 0 L 20.25 0 L 20.25 -8.578125 C 20.25 -10.304688 19.890625 -11.566406 19.171875 -12.359375 C 18.453125 -13.148438 17.175781 -13.546875 15.34375 -13.546875 C 14.144531 -13.546875 12.953125 -13.304688 11.765625 -12.828125 C 10.585938 -12.359375 9.601562 -11.738281 8.8125 -10.96875 L 8.8125 0 L 0.671875 0 L 0.671875 -20.328125 L 8.8125 -20.328125 L 8.8125 -17.609375 C 10.03125 -18.472656 11.441406 -19.195312 13.046875 -19.78125 C 14.648438 -20.363281 16.507812 -20.65625 18.625 -20.65625 Z M 18.625 -20.65625 "/></g></g></g><g fill="#ffffff" fill-opacity="1"><g transform="translate(455.500166, 64.252843)"><g><path d="M 20.859375 -13.546875 L 12.5625 -13.546875 L 12.5625 -9.34375 C 12.5625 -8.375 12.785156 -7.644531 13.234375 -7.15625 C 13.691406 -6.675781 14.507812 -6.4375 15.6875 -6.4375 C 16.289062 -6.4375 16.835938 -6.441406 17.328125 -6.453125 C 17.816406 -6.460938 18.335938 -6.488281 18.890625 -6.53125 C 19.441406 -6.582031 20.097656 -6.664062 20.859375 -6.78125 L 20.859375 -0.171875 C 18.941406 0.171875 16.609375 0.34375 13.859375 0.34375 C 10.710938 0.34375 8.351562 -0.160156 6.78125 -1.171875 C 5.21875 -2.191406 4.4375 -3.800781 4.4375 -6 L 4.4375 -13.546875 L 0.34375 -13.546875 L 0.34375 -20.328125 L 4.4375 -20.328125 L 4.4375 -23.71875 L 12.5625 -25.75 L 12.5625 -20.328125 L 20.859375 -20.328125 Z M 20.859375 -13.546875 "/></g></g></g><g fill="#ffffff" fill-opacity="1"><g transform="translate(476.704633, 64.252843)"><g><path d="M 0.671875 -27.09375 L 8.8125 -27.09375 L 8.8125 -21.6875 L 0.671875 -21.6875 Z M 0.671875 -20.328125 L 8.8125 -20.328125 L 8.8125 0 L 0.671875 0 Z M 0.671875 -20.328125 "/></g></g></g><g fill="#ffffff" fill-opacity="1"><g transform="translate(486.189054, 64.252843)"><g><path d="M 14.234375 -20.65625 C 17.003906 -20.65625 19.363281 -20.3125 21.3125 -19.625 C 23.269531 -18.9375 24.765625 -17.816406 25.796875 -16.265625 C 26.828125 -14.722656 27.351562 -12.65625 27.375 -10.0625 L 27.375 0 L 19.234375 0 L 19.234375 -2.46875 C 17.660156 -1.320312 16.007812 -0.566406 14.28125 -0.203125 C 12.550781 0.160156 10.804688 0.34375 9.046875 0.34375 C 7.503906 0.34375 6.066406 0.144531 4.734375 -0.25 C 3.410156 -0.644531 2.347656 -1.285156 1.546875 -2.171875 C 0.742188 -3.066406 0.34375 -4.25 0.34375 -5.71875 C 0.34375 -7.050781 0.6875 -8.144531 1.375 -9 C 2.0625 -9.863281 2.976562 -10.539062 4.125 -11.03125 C 5.28125 -11.53125 6.566406 -11.878906 7.984375 -12.078125 C 9.410156 -12.285156 10.867188 -12.390625 12.359375 -12.390625 C 13.785156 -12.390625 15.054688 -12.300781 16.171875 -12.125 C 17.296875 -11.945312 18.316406 -11.6875 19.234375 -11.34375 C 19.234375 -12.15625 18.976562 -12.742188 18.46875 -13.109375 C 17.96875 -13.472656 17.316406 -13.691406 16.515625 -13.765625 C 15.710938 -13.847656 14.859375 -13.890625 13.953125 -13.890625 C 12.640625 -13.890625 11.226562 -13.816406 9.71875 -13.671875 C 8.207031 -13.523438 6.515625 -13.25 4.640625 -12.84375 L 2 -18.59375 C 4.03125 -19.25 6.109375 -19.753906 8.234375 -20.109375 C 10.359375 -20.472656 12.359375 -20.65625 14.234375 -20.65625 Z M 19.234375 -6.640625 L 19.234375 -7.484375 C 17.953125 -7.828125 16.160156 -8 13.859375 -8 C 11.984375 -8 10.613281 -7.890625 9.75 -7.671875 C 8.894531 -7.453125 8.46875 -7.019531 8.46875 -6.375 C 8.46875 -5.800781 8.707031 -5.441406 9.1875 -5.296875 C 9.675781 -5.148438 10.441406 -5.078125 11.484375 -5.078125 C 12.859375 -5.078125 14.238281 -5.226562 15.625 -5.53125 C 17.019531 -5.84375 18.222656 -6.210938 19.234375 -6.640625 Z M 19.234375 -6.640625 "/></g></g></g><g fill="#ffffff" fill-opacity="1"><g transform="translate(514.235818, 64.252843)"><g><path d="M 0.671875 -27.09375 L 8.8125 -27.09375 L 8.8125 0 L 0.671875 0 Z M 0.671875 -27.09375 "/></g></g></g><g fill="#ffffff" fill-opacity="1"><g transform="translate(523.727141, 64.252843)"><g/></g></g><g fill="#ffffff" fill-opacity="1"><g transform="translate(90.548364, 111.413011)"><g><path d="M 14.15625 0.34375 C 11.289062 0.34375 8.820312 -0.0078125 6.75 -0.71875 C 4.6875 -1.4375 3.101562 -2.5625 2 -4.09375 C 0.894531 -5.632812 0.34375 -7.65625 0.34375 -10.15625 C 0.34375 -12.664062 0.894531 -14.691406 2 -16.234375 C 3.101562 -17.785156 4.6875 -18.910156 6.75 -19.609375 C 8.820312 -20.304688 11.289062 -20.65625 14.15625 -20.65625 C 17.050781 -20.65625 19.523438 -20.304688 21.578125 -19.609375 C 23.628906 -18.910156 25.207031 -17.785156 26.3125 -16.234375 C 27.425781 -14.691406 27.984375 -12.664062 27.984375 -10.15625 C 27.984375 -7.65625 27.425781 -5.632812 26.3125 -4.09375 C 25.207031 -2.5625 23.628906 -1.4375 21.578125 -0.71875 C 19.523438 -0.0078125 17.050781 0.34375 14.15625 0.34375 Z M 14.15625 -6.4375 C 15.96875 -6.4375 17.367188 -6.679688 18.359375 -7.171875 C 19.347656 -7.671875 19.84375 -8.664062 19.84375 -10.15625 C 19.84375 -11.644531 19.347656 -12.640625 18.359375 -13.140625 C 17.367188 -13.640625 15.96875 -13.890625 14.15625 -13.890625 C 12.351562 -13.890625 10.953125 -13.640625 9.953125 -13.140625 C 8.960938 -12.640625 8.46875 -11.644531 8.46875 -10.15625 C 8.46875 -8.664062 8.960938 -7.671875 9.953125 -7.171875 C 10.953125 -6.679688 12.351562 -6.4375 14.15625 -6.4375 Z M 14.15625 -6.4375 "/></g></g></g><g fill="#ffffff" fill-opacity="1"><g transform="translate(118.866136, 111.413011)"><g><path d="M 15.6875 -22.1875 C 14.71875 -22.1875 13.992188 -22.039062 13.515625 -21.75 C 13.046875 -21.457031 12.753906 -20.984375 12.640625 -20.328125 L 19.84375 -20.328125 L 19.84375 -13.546875 L 12.5625 -13.546875 L 12.5625 0 L 4.4375 0 L 4.4375 -13.546875 L 0.34375 -13.546875 L 0.34375 -20.328125 L 4.4375 -20.328125 L 4.4375 -21.4375 C 4.4375 -22.789062 4.734375 -23.910156 5.328125 -24.796875 C 5.929688 -25.679688 6.921875 -26.34375 8.296875 -26.78125 C 9.671875 -27.21875 11.523438 -27.4375 13.859375 -27.4375 C 14.535156 -27.4375 15.140625 -27.429688 15.671875 -27.421875 C 16.203125 -27.410156 16.785156 -27.378906 17.421875 -27.328125 C 18.066406 -27.285156 18.875 -27.207031 19.84375 -27.09375 L 19.84375 -22.015625 C 19.195312 -22.066406 18.523438 -22.109375 17.828125 -22.140625 C 17.140625 -22.171875 16.425781 -22.1875 15.6875 -22.1875 Z M 15.6875 -22.1875 "/></g></g></g><g fill="#ffffff" fill-opacity="1"><g transform="translate(139.054403, 111.413011)"><g/></g></g><g fill="#204af2" fill-opacity="1"><g transform="translate(152.609835, 111.413011)"><g><path d="M 26.53125 -13.25 C 27.5625 -12.5 28.410156 -11.59375 29.078125 -10.53125 C 29.742188 -9.46875 30.078125 -8.296875 30.078125 -7.015625 C 30.078125 -5.722656 29.804688 -4.546875 29.265625 -3.484375 C 28.722656 -2.421875 27.882812 -1.570312 26.75 -0.9375 C 25.625 -0.3125 24.160156 0 22.359375 0 L 0.671875 0 L 0.671875 -23.71875 L 21.34375 -23.71875 C 23.144531 -23.71875 24.550781 -23.460938 25.5625 -22.953125 C 26.582031 -22.441406 27.304688 -21.734375 27.734375 -20.828125 C 28.171875 -19.929688 28.390625 -18.882812 28.390625 -17.6875 C 28.390625 -16.914062 28.222656 -16.148438 27.890625 -15.390625 C 27.566406 -14.640625 27.113281 -13.925781 26.53125 -13.25 Z M 9.484375 -17.953125 L 9.484375 -15.375 L 17.609375 -15.375 C 18.066406 -15.375 18.507812 -15.429688 18.9375 -15.546875 C 19.363281 -15.660156 19.578125 -16.035156 19.578125 -16.671875 C 19.578125 -17.328125 19.363281 -17.703125 18.9375 -17.796875 C 18.507812 -17.898438 18.066406 -17.953125 17.609375 -17.953125 Z M 19.3125 -6.4375 C 19.757812 -6.4375 20.195312 -6.484375 20.625 -6.578125 C 21.0625 -6.679688 21.28125 -7.050781 21.28125 -7.6875 C 21.28125 -8.320312 21.0625 -8.6875 20.625 -8.78125 C 20.195312 -8.882812 19.757812 -8.9375 19.3125 -8.9375 L 9.484375 -8.9375 L 9.484375 -6.4375 Z M 19.3125 -6.4375 "/></g></g></g><g fill="#204af2" fill-opacity="1"><g transform="translate(183.027728, 111.413011)"><g><path d="M 0.671875 -27.09375 L 8.8125 -27.09375 L 8.8125 0 L 0.671875 0 Z M 0.671875 -27.09375 "/></g></g></g><g fill="#204af2" fill-opacity="1"><g transform="translate(192.512149, 111.413011)"><g><path d="M 14.15625 0.34375 C 11.289062 0.34375 8.820312 -0.0078125 6.75 -0.71875 C 4.6875 -1.4375 3.101562 -2.5625 2 -4.09375 C 0.894531 -5.632812 0.34375 -7.65625 0.34375 -10.15625 C 0.34375 -12.664062 0.894531 -14.691406 2 -16.234375 C 3.101562 -17.785156 4.6875 -18.910156 6.75 -19.609375 C 8.820312 -20.304688 11.289062 -20.65625 14.15625 -20.65625 C 17.050781 -20.65625 19.523438 -20.304688 21.578125 -19.609375 C 23.628906 -18.910156 25.207031 -17.785156 26.3125 -16.234375 C 27.425781 -14.691406 27.984375 -12.664062 27.984375 -10.15625 C 27.984375 -7.65625 27.425781 -5.632812 26.3125 -4.09375 C 25.207031 -2.5625 23.628906 -1.4375 21.578125 -0.71875 C 19.523438 -0.0078125 17.050781 0.34375 14.15625 0.34375 Z M 14.15625 -6.4375 C 15.96875 -6.4375 17.367188 -6.679688 18.359375 -7.171875 C 19.347656 -7.671875 19.84375 -8.664062 19.84375 -10.15625 C 19.84375 -11.644531 19.347656 -12.640625 18.359375 -13.140625 C 17.367188 -13.640625 15.96875 -13.890625 14.15625 -13.890625 C 12.351562 -13.890625 10.953125 -13.640625 9.953125 -13.140625 C 8.960938 -12.640625 8.46875 -11.644531 8.46875 -10.15625 C 8.46875 -8.664062 8.960938 -7.671875 9.953125 -7.171875 C 10.953125 -6.679688 12.351562 -6.4375 14.15625 -6.4375 Z M 14.15625 -6.4375 "/></g></g></g><g fill="#204af2" fill-opacity="1"><g transform="translate(220.82992, 111.413011)"><g><path d="M 0.34375 -10.15625 C 0.34375 -12.664062 0.894531 -14.691406 2 -16.234375 C 3.101562 -17.785156 4.6875 -18.910156 6.75 -19.609375 C 8.820312 -20.304688 11.289062 -20.65625 14.15625 -20.65625 C 16.84375 -20.65625 19.164062 -20.347656 21.125 -19.734375 C 23.09375 -19.128906 24.660156 -18.171875 25.828125 -16.859375 C 26.992188 -15.554688 27.6875 -13.832031 27.90625 -11.6875 L 19.609375 -11.6875 C 19.296875 -12.539062 18.675781 -13.117188 17.75 -13.421875 C 16.820312 -13.734375 15.625 -13.890625 14.15625 -13.890625 C 12.351562 -13.890625 10.953125 -13.640625 9.953125 -13.140625 C 8.960938 -12.640625 8.46875 -11.644531 8.46875 -10.15625 C 8.46875 -8.664062 8.960938 -7.671875 9.953125 -7.171875 C 10.953125 -6.679688 12.351562 -6.4375 14.15625 -6.4375 C 15.625 -6.4375 16.820312 -6.585938 17.75 -6.890625 C 18.675781 -7.191406 19.296875 -7.773438 19.609375 -8.640625 L 27.90625 -8.640625 C 27.6875 -6.515625 26.992188 -4.789062 25.828125 -3.46875 C 24.660156 -2.144531 23.09375 -1.175781 21.125 -0.5625 C 19.164062 0.0390625 16.84375 0.34375 14.15625 0.34375 C 11.289062 0.34375 8.820312 -0.0078125 6.75 -0.71875 C 4.6875 -1.4375 3.101562 -2.5625 2 -4.09375 C 0.894531 -5.632812 0.34375 -7.65625 0.34375 -10.15625 Z M 0.34375 -10.15625 "/></g></g></g><g fill="#204af2" fill-opacity="1"><g transform="translate(249.079945, 111.413011)"><g><path d="M 30.890625 -20.328125 L 19.78125 -11.890625 L 30.890625 0 L 20.390625 0 L 13.578125 -7.65625 L 8.8125 -4.171875 L 8.8125 0 L 0.671875 0 L 0.671875 -27.09375 L 8.8125 -27.09375 L 8.8125 -13.078125 L 18.359375 -20.328125 Z M 30.890625 -20.328125 "/></g></g></g><g fill="#204af2" fill-opacity="1"><g transform="translate(280.310789, 111.413011)"><g><path d="M 0.34375 -10.15625 C 0.34375 -12.664062 0.894531 -14.691406 2 -16.234375 C 3.101562 -17.785156 4.6875 -18.910156 6.75 -19.609375 C 8.820312 -20.304688 11.289062 -20.65625 14.15625 -20.65625 C 16.84375 -20.65625 19.164062 -20.347656 21.125 -19.734375 C 23.09375 -19.128906 24.660156 -18.171875 25.828125 -16.859375 C 26.992188 -15.554688 27.6875 -13.832031 27.90625 -11.6875 L 19.609375 -11.6875 C 19.296875 -12.539062 18.675781 -13.117188 17.75 -13.421875 C 16.820312 -13.734375 15.625 -13.890625 14.15625 -13.890625 C 12.351562 -13.890625 10.953125 -13.640625 9.953125 -13.140625 C 8.960938 -12.640625 8.46875 -11.644531 8.46875 -10.15625 C 8.46875 -8.664062 8.960938 -7.671875 9.953125 -7.171875 C 10.953125 -6.679688 12.351562 -6.4375 14.15625 -6.4375 C 15.625 -6.4375 16.820312 -6.585938 17.75 -6.890625 C 18.675781 -7.191406 19.296875 -7.773438 19.609375 -8.640625 L 27.90625 -8.640625 C 27.6875 -6.515625 26.992188 -4.789062 25.828125 -3.46875 C 24.660156 -2.144531 23.09375 -1.175781 21.125 -0.5625 C 19.164062 0.0390625 16.84375 0.34375 14.15625 0.34375 C 11.289062 0.34375 8.820312 -0.0078125 6.75 -0.71875 C 4.6875 -1.4375 3.101562 -2.5625 2 -4.09375 C 0.894531 -5.632812 0.34375 -7.65625 0.34375 -10.15625 Z M 0.34375 -10.15625 "/></g></g></g><g fill="#204af2" fill-opacity="1"><g transform="translate(308.560814, 111.413011)"><g><path d="M 18.625 -20.65625 C 19.78125 -20.65625 20.925781 -20.535156 22.0625 -20.296875 C 23.207031 -20.066406 24.257812 -19.640625 25.21875 -19.015625 C 26.175781 -18.398438 26.941406 -17.515625 27.515625 -16.359375 C 28.097656 -15.210938 28.390625 -13.722656 28.390625 -11.890625 L 28.390625 0 L 20.25 0 L 20.25 -8.578125 C 20.25 -10.304688 19.890625 -11.566406 19.171875 -12.359375 C 18.453125 -13.148438 17.175781 -13.546875 15.34375 -13.546875 C 14.144531 -13.546875 12.953125 -13.304688 11.765625 -12.828125 C 10.585938 -12.359375 9.601562 -11.738281 8.8125 -10.96875 L 8.8125 0 L 0.671875 0 L 0.671875 -27.09375 L 8.8125 -27.09375 L 8.8125 -17.609375 C 10.03125 -18.472656 11.441406 -19.195312 13.046875 -19.78125 C 14.648438 -20.363281 16.507812 -20.65625 18.625 -20.65625 Z M 18.625 -20.65625 "/></g></g></g><g fill="#204af2" fill-opacity="1"><g transform="translate(337.62379, 111.413011)"><g><path d="M 14.234375 -20.65625 C 17.003906 -20.65625 19.363281 -20.3125 21.3125 -19.625 C 23.269531 -18.9375 24.765625 -17.816406 25.796875 -16.265625 C 26.828125 -14.722656 27.351562 -12.65625 27.375 -10.0625 L 27.375 0 L 19.234375 0 L 19.234375 -2.46875 C 17.660156 -1.320312 16.007812 -0.566406 14.28125 -0.203125 C 12.550781 0.160156 10.804688 0.34375 9.046875 0.34375 C 7.503906 0.34375 6.066406 0.144531 4.734375 -0.25 C 3.410156 -0.644531 2.347656 -1.285156 1.546875 -2.171875 C 0.742188 -3.066406 0.34375 -4.25 0.34375 -5.71875 C 0.34375 -7.050781 0.6875 -8.144531 1.375 -9 C 2.0625 -9.863281 2.976562 -10.539062 4.125 -11.03125 C 5.28125 -11.53125 6.566406 -11.878906 7.984375 -12.078125 C 9.410156 -12.285156 10.867188 -12.390625 12.359375 -12.390625 C 13.785156 -12.390625 15.054688 -12.300781 16.171875 -12.125 C 17.296875 -11.945312 18.316406 -11.6875 19.234375 -11.34375 C 19.234375 -12.15625 18.976562 -12.742188 18.46875 -13.109375 C 17.96875 -13.472656 17.316406 -13.691406 16.515625 -13.765625 C 15.710938 -13.847656 14.859375 -13.890625 13.953125 -13.890625 C 12.640625 -13.890625 11.226562 -13.816406 9.71875 -13.671875 C 8.207031 -13.523438 6.515625 -13.25 4.640625 -12.84375 L 2 -18.59375 C 4.03125 -19.25 6.109375 -19.753906 8.234375 -20.109375 C 10.359375 -20.472656 12.359375 -20.65625 14.234375 -20.65625 Z M 19.234375 -6.640625 L 19.234375 -7.484375 C 17.953125 -7.828125 16.160156 -8 13.859375 -8 C 11.984375 -8 10.613281 -7.890625 9.75 -7.671875 C 8.894531 -7.453125 8.46875 -7.019531 8.46875 -6.375 C 8.46875 -5.800781 8.707031 -5.441406 9.1875 -5.296875 C 9.675781 -5.148438 10.441406 -5.078125 11.484375 -5.078125 C 12.859375 -5.078125 14.238281 -5.226562 15.625 -5.53125 C 17.019531 -5.84375 18.222656 -6.210938 19.234375 -6.640625 Z M 19.234375 -6.640625 "/></g></g></g><g fill="#204af2" fill-opacity="1"><g transform="translate(365.670589, 111.413011)"><g><path d="M 0.671875 -27.09375 L 8.8125 -27.09375 L 8.8125 -21.6875 L 0.671875 -21.6875 Z M 0.671875 -20.328125 L 8.8125 -20.328125 L 8.8125 0 L 0.671875 0 Z M 0.671875 -20.328125 "/></g></g></g><g fill="#204af2" fill-opacity="1"><g transform="translate(375.15501, 111.413011)"><g><path d="M 18.625 -20.65625 C 19.78125 -20.65625 20.925781 -20.535156 22.0625 -20.296875 C 23.207031 -20.066406 24.257812 -19.640625 25.21875 -19.015625 C 26.175781 -18.398438 26.941406 -17.515625 27.515625 -16.359375 C 28.097656 -15.210938 28.390625 -13.722656 28.390625 -11.890625 L 28.390625 0 L 20.25 0 L 20.25 -8.578125 C 20.25 -10.304688 19.890625 -11.566406 19.171875 -12.359375 C 18.453125 -13.148438 17.175781 -13.546875 15.34375 -13.546875 C 14.144531 -13.546875 12.953125 -13.304688 11.765625 -12.828125 C 10.585938 -12.359375 9.601562 -11.738281 8.8125 -10.96875 L 8.8125 0 L 0.671875 0 L 0.671875 -20.328125 L 8.8125 -20.328125 L 8.8125 -17.609375 C 10.03125 -18.472656 11.441406 -19.195312 13.046875 -19.78125 C 14.648438 -20.363281 16.507812 -20.65625 18.625 -20.65625 Z M 18.625 -20.65625 "/></g></g></g><g fill="#ffffff" fill-opacity="1"><g transform="translate(404.224302, 111.413011)"><g/></g></g><g fill="#ffffff" fill-opacity="1"><g transform="translate(417.773475, 111.413011)"><g><path d="M 14.234375 -20.65625 C 17.003906 -20.65625 19.363281 -20.3125 21.3125 -19.625 C 23.269531 -18.9375 24.765625 -17.816406 25.796875 -16.265625 C 26.828125 -14.722656 27.351562 -12.65625 27.375 -10.0625 L 27.375 0 L 19.234375 0 L 19.234375 -2.46875 C 17.660156 -1.320312 16.007812 -0.566406 14.28125 -0.203125 C 12.550781 0.160156 10.804688 0.34375 9.046875 0.34375 C 7.503906 0.34375 6.066406 0.144531 4.734375 -0.25 C 3.410156 -0.644531 2.347656 -1.285156 1.546875 -2.171875 C 0.742188 -3.066406 0.34375 -4.25 0.34375 -5.71875 C 0.34375 -7.050781 0.6875 -8.144531 1.375 -9 C 2.0625 -9.863281 2.976562 -10.539062 4.125 -11.03125 C 5.28125 -11.53125 6.566406 -11.878906 7.984375 -12.078125 C 9.410156 -12.285156 10.867188 -12.390625 12.359375 -12.390625 C 13.785156 -12.390625 15.054688 -12.300781 16.171875 -12.125 C 17.296875 -11.945312 18.316406 -11.6875 19.234375 -11.34375 C 19.234375 -12.15625 18.976562 -12.742188 18.46875 -13.109375 C 17.96875 -13.472656 17.316406 -13.691406 16.515625 -13.765625 C 15.710938 -13.847656 14.859375 -13.890625 13.953125 -13.890625 C 12.640625 -13.890625 11.226562 -13.816406 9.71875 -13.671875 C 8.207031 -13.523438 6.515625 -13.25 4.640625 -12.84375 L 2 -18.59375 C 4.03125 -19.25 6.109375 -19.753906 8.234375 -20.109375 C 10.359375 -20.472656 12.359375 -20.65625 14.234375 -20.65625 Z M 19.234375 -6.640625 L 19.234375 -7.484375 C 17.953125 -7.828125 16.160156 -8 13.859375 -8 C 11.984375 -8 10.613281 -7.890625 9.75 -7.671875 C 8.894531 -7.453125 8.46875 -7.019531 8.46875 -6.375 C 8.46875 -5.800781 8.707031 -5.441406 9.1875 -5.296875 C 9.675781 -5.148438 10.441406 -5.078125 11.484375 -5.078125 C 12.859375 -5.078125 14.238281 -5.226562 15.625 -5.53125 C 17.019531 -5.84375 18.222656 -6.210938 19.234375 -6.640625 Z M 19.234375 -6.640625 "/></g></g></g><g fill="#ffffff" fill-opacity="1"><g transform="translate(445.820262, 111.413011)"><g><path d="M 18.625 -20.65625 C 19.78125 -20.65625 20.925781 -20.535156 22.0625 -20.296875 C 23.207031 -20.066406 24.257812 -19.640625 25.21875 -19.015625 C 26.175781 -18.398438 26.941406 -17.515625 27.515625 -16.359375 C 28.097656 -15.210938 28.390625 -13.722656 28.390625 -11.890625 L 28.390625 0 L 20.25 0 L 20.25 -8.578125 C 20.25 -10.304688 19.890625 -11.566406 19.171875 -12.359375 C 18.453125 -13.148438 17.175781 -13.546875 15.34375 -13.546875 C 14.144531 -13.546875 12.953125 -13.304688 11.765625 -12.828125 C 10.585938 -12.359375 9.601562 -11.738281 8.8125 -10.96875 L 8.8125 0 L 0.671875 0 L 0.671875 -20.328125 L 8.8125 -20.328125 L 8.8125 -17.609375 C 10.03125 -18.472656 11.441406 -19.195312 13.046875 -19.78125 C 14.648438 -20.363281 16.507812 -20.65625 18.625 -20.65625 Z M 18.625 -20.65625 "/></g></g></g><g fill="#ffffff" fill-opacity="1"><g transform="translate(474.883238, 111.413011)"><g><path d="M 19.84375 -27.09375 L 27.984375 -27.09375 L 27.984375 0 L 19.84375 0 L 19.84375 -2.78125 C 18.789062 -1.695312 17.523438 -0.90625 16.046875 -0.40625 C 14.566406 0.09375 13.035156 0.34375 11.453125 0.34375 C 10.140625 0.34375 8.828125 0.179688 7.515625 -0.140625 C 6.210938 -0.472656 5.015625 -1.035156 3.921875 -1.828125 C 2.835938 -2.617188 1.96875 -3.691406 1.3125 -5.046875 C 0.664062 -6.398438 0.34375 -8.101562 0.34375 -10.15625 C 0.34375 -12.21875 0.664062 -13.925781 1.3125 -15.28125 C 1.96875 -16.632812 2.835938 -17.707031 3.921875 -18.5 C 5.015625 -19.289062 6.210938 -19.847656 7.515625 -20.171875 C 8.828125 -20.492188 10.140625 -20.65625 11.453125 -20.65625 C 13.035156 -20.65625 14.566406 -20.40625 16.046875 -19.90625 C 17.523438 -19.414062 18.789062 -18.628906 19.84375 -17.546875 Z M 14.15625 -6.4375 C 15.96875 -6.4375 17.367188 -6.679688 18.359375 -7.171875 C 19.347656 -7.671875 19.84375 -8.664062 19.84375 -10.15625 C 19.84375 -11.644531 19.347656 -12.640625 18.359375 -13.140625 C 17.367188 -13.640625 15.96875 -13.890625 14.15625 -13.890625 C 12.351562 -13.890625 10.953125 -13.640625 9.953125 -13.140625 C 8.960938 -12.640625 8.46875 -11.644531 8.46875 -10.15625 C 8.46875 -8.664062 8.960938 -7.671875 9.953125 -7.171875 C 10.953125 -6.679688 12.351562 -6.4375 14.15625 -6.4375 Z M 14.15625 -6.4375 "/></g></g></g><g fill="#ffffff" fill-opacity="1"><g transform="translate(139.065323, 158.573178)"><g><path d="M 18.296875 -23.71875 C 19.710938 -23.71875 21.085938 -23.472656 22.421875 -22.984375 C 23.753906 -22.492188 24.945312 -21.765625 26 -20.796875 C 27.050781 -19.828125 27.878906 -18.597656 28.484375 -17.109375 C 29.097656 -15.617188 29.40625 -13.867188 29.40625 -11.859375 C 29.40625 -9.847656 29.097656 -8.097656 28.484375 -6.609375 C 27.878906 -5.117188 27.050781 -3.882812 26 -2.90625 C 24.945312 -1.9375 23.753906 -1.207031 22.421875 -0.71875 C 21.085938 -0.238281 19.710938 0 18.296875 0 L 0.671875 0 L 0.671875 -23.71875 Z M 15.578125 -7.453125 C 16.054688 -7.453125 16.582031 -7.476562 17.15625 -7.53125 C 17.726562 -7.59375 18.273438 -7.753906 18.796875 -8.015625 C 19.316406 -8.273438 19.742188 -8.703125 20.078125 -9.296875 C 20.421875 -9.898438 20.59375 -10.753906 20.59375 -11.859375 C 20.59375 -12.960938 20.421875 -13.8125 20.078125 -14.40625 C 19.742188 -15.007812 19.316406 -15.441406 18.796875 -15.703125 C 18.273438 -15.960938 17.726562 -16.117188 17.15625 -16.171875 C 16.582031 -16.234375 16.054688 -16.265625 15.578125 -16.265625 L 9.484375 -16.265625 L 9.484375 -7.453125 Z M 15.578125 -7.453125 "/></g></g></g><g fill="#ffffff" fill-opacity="1"><g transform="translate(168.805757, 158.573178)"><g><path d="M 13.828125 -6.09375 C 14.816406 -6.09375 15.632812 -6.125 16.28125 -6.1875 C 16.925781 -6.257812 17.503906 -6.410156 18.015625 -6.640625 C 18.535156 -6.867188 19.066406 -7.195312 19.609375 -7.625 L 27.578125 -7.625 C 27.078125 -4.9375 25.703125 -2.9375 23.453125 -1.625 C 21.210938 -0.3125 18.003906 0.34375 13.828125 0.34375 C 11.179688 0.34375 8.84375 -0.0078125 6.8125 -0.71875 C 4.78125 -1.4375 3.191406 -2.5625 2.046875 -4.09375 C 0.910156 -5.632812 0.34375 -7.65625 0.34375 -10.15625 C 0.34375 -12.664062 0.914062 -14.691406 2.0625 -16.234375 C 3.21875 -17.785156 4.832031 -18.910156 6.90625 -19.609375 C 8.988281 -20.304688 11.40625 -20.65625 14.15625 -20.65625 C 16.957031 -20.65625 19.382812 -20.28125 21.4375 -19.53125 C 23.5 -18.789062 25.09375 -17.554688 26.21875 -15.828125 C 27.34375 -14.109375 27.90625 -11.769531 27.90625 -8.8125 L 8.640625 -8.8125 C 8.867188 -8.082031 9.242188 -7.519531 9.765625 -7.125 C 10.296875 -6.726562 10.914062 -6.457031 11.625 -6.3125 C 12.34375 -6.164062 13.078125 -6.09375 13.828125 -6.09375 Z M 14.125 -14.90625 C 13.039062 -14.90625 12.03125 -14.796875 11.09375 -14.578125 C 10.15625 -14.367188 9.460938 -13.800781 9.015625 -12.875 L 19.234375 -12.875 C 18.785156 -13.800781 18.09375 -14.367188 17.15625 -14.578125 C 16.21875 -14.796875 15.207031 -14.90625 14.125 -14.90625 Z M 14.125 -14.90625 "/></g></g></g><g fill="#ffffff" fill-opacity="1"><g transform="translate(197.055782, 158.573178)"><g><path d="M 0.34375 -10.15625 C 0.34375 -12.664062 0.894531 -14.691406 2 -16.234375 C 3.101562 -17.785156 4.6875 -18.910156 6.75 -19.609375 C 8.820312 -20.304688 11.289062 -20.65625 14.15625 -20.65625 C 16.84375 -20.65625 19.164062 -20.347656 21.125 -19.734375 C 23.09375 -19.128906 24.660156 -18.171875 25.828125 -16.859375 C 26.992188 -15.554688 27.6875 -13.832031 27.90625 -11.6875 L 19.609375 -11.6875 C 19.296875 -12.539062 18.675781 -13.117188 17.75 -13.421875 C 16.820312 -13.734375 15.625 -13.890625 14.15625 -13.890625 C 12.351562 -13.890625 10.953125 -13.640625 9.953125 -13.140625 C 8.960938 -12.640625 8.46875 -11.644531 8.46875 -10.15625 C 8.46875 -8.664062 8.960938 -7.671875 9.953125 -7.171875 C 10.953125 -6.679688 12.351562 -6.4375 14.15625 -6.4375 C 15.625 -6.4375 16.820312 -6.585938 17.75 -6.890625 C 18.675781 -7.191406 19.296875 -7.773438 19.609375 -8.640625 L 27.90625 -8.640625 C 27.6875 -6.515625 26.992188 -4.789062 25.828125 -3.46875 C 24.660156 -2.144531 23.09375 -1.175781 21.125 -0.5625 C 19.164062 0.0390625 16.84375 0.34375 14.15625 0.34375 C 11.289062 0.34375 8.820312 -0.0078125 6.75 -0.71875 C 4.6875 -1.4375 3.101562 -2.5625 2 -4.09375 C 0.894531 -5.632812 0.34375 -7.65625 0.34375 -10.15625 Z M 0.34375 -10.15625 "/></g></g></g><g fill="#ffffff" fill-opacity="1"><g transform="translate(225.305807, 158.573178)"><g><path d="M 13.828125 -6.09375 C 14.816406 -6.09375 15.632812 -6.125 16.28125 -6.1875 C 16.925781 -6.257812 17.503906 -6.410156 18.015625 -6.640625 C 18.535156 -6.867188 19.066406 -7.195312 19.609375 -7.625 L 27.578125 -7.625 C 27.078125 -4.9375 25.703125 -2.9375 23.453125 -1.625 C 21.210938 -0.3125 18.003906 0.34375 13.828125 0.34375 C 11.179688 0.34375 8.84375 -0.0078125 6.8125 -0.71875 C 4.78125 -1.4375 3.191406 -2.5625 2.046875 -4.09375 C 0.910156 -5.632812 0.34375 -7.65625 0.34375 -10.15625 C 0.34375 -12.664062 0.914062 -14.691406 2.0625 -16.234375 C 3.21875 -17.785156 4.832031 -18.910156 6.90625 -19.609375 C 8.988281 -20.304688 11.40625 -20.65625 14.15625 -20.65625 C 16.957031 -20.65625 19.382812 -20.28125 21.4375 -19.53125 C 23.5 -18.789062 25.09375 -17.554688 26.21875 -15.828125 C 27.34375 -14.109375 27.90625 -11.769531 27.90625 -8.8125 L 8.640625 -8.8125 C 8.867188 -8.082031 9.242188 -7.519531 9.765625 -7.125 C 10.296875 -6.726562 10.914062 -6.457031 11.625 -6.3125 C 12.34375 -6.164062 13.078125 -6.09375 13.828125 -6.09375 Z M 14.125 -14.90625 C 13.039062 -14.90625 12.03125 -14.796875 11.09375 -14.578125 C 10.15625 -14.367188 9.460938 -13.800781 9.015625 -12.875 L 19.234375 -12.875 C 18.785156 -13.800781 18.09375 -14.367188 17.15625 -14.578125 C 16.21875 -14.796875 15.207031 -14.90625 14.125 -14.90625 Z M 14.125 -14.90625 "/></g></g></g><g fill="#ffffff" fill-opacity="1"><g transform="translate(253.555832, 158.573178)"><g><path d="M 18.625 -20.65625 C 19.78125 -20.65625 20.925781 -20.535156 22.0625 -20.296875 C 23.207031 -20.066406 24.257812 -19.640625 25.21875 -19.015625 C 26.175781 -18.398438 26.941406 -17.515625 27.515625 -16.359375 C 28.097656 -15.210938 28.390625 -13.722656 28.390625 -11.890625 L 28.390625 0 L 20.25 0 L 20.25 -8.578125 C 20.25 -10.304688 19.890625 -11.566406 19.171875 -12.359375 C 18.453125 -13.148438 17.175781 -13.546875 15.34375 -13.546875 C 14.144531 -13.546875 12.953125 -13.304688 11.765625 -12.828125 C 10.585938 -12.359375 9.601562 -11.738281 8.8125 -10.96875 L 8.8125 0 L 0.671875 0 L 0.671875 -20.328125 L 8.8125 -20.328125 L 8.8125 -17.609375 C 10.03125 -18.472656 11.441406 -19.195312 13.046875 -19.78125 C 14.648438 -20.363281 16.507812 -20.65625 18.625 -20.65625 Z M 18.625 -20.65625 "/></g></g></g><g fill="#ffffff" fill-opacity="1"><g transform="translate(282.618808, 158.573178)"><g><path d="M 20.859375 -13.546875 L 12.5625 -13.546875 L 12.5625 -9.34375 C 12.5625 -8.375 12.785156 -7.644531 13.234375 -7.15625 C 13.691406 -6.675781 14.507812 -6.4375 15.6875 -6.4375 C 16.289062 -6.4375 16.835938 -6.441406 17.328125 -6.453125 C 17.816406 -6.460938 18.335938 -6.488281 18.890625 -6.53125 C 19.441406 -6.582031 20.097656 -6.664062 20.859375 -6.78125 L 20.859375 -0.171875 C 18.941406 0.171875 16.609375 0.34375 13.859375 0.34375 C 10.710938 0.34375 8.351562 -0.160156 6.78125 -1.171875 C 5.21875 -2.191406 4.4375 -3.800781 4.4375 -6 L 4.4375 -13.546875 L 0.34375 -13.546875 L 0.34375 -20.328125 L 4.4375 -20.328125 L 4.4375 -23.71875 L 12.5625 -25.75 L 12.5625 -20.328125 L 20.859375 -20.328125 Z M 20.859375 -13.546875 "/></g></g></g><g fill="#ffffff" fill-opacity="1"><g transform="translate(303.823264, 158.573178)"><g><path d="M 16.703125 -20.65625 C 17.898438 -20.65625 18.925781 -20.585938 19.78125 -20.453125 C 20.632812 -20.316406 21.40625 -20.160156 22.09375 -19.984375 L 22.09375 -13.21875 C 21.132812 -13.457031 20.257812 -13.628906 19.46875 -13.734375 C 18.6875 -13.835938 17.921875 -13.890625 17.171875 -13.890625 C 16.222656 -13.890625 15.25 -13.828125 14.25 -13.703125 C 13.257812 -13.578125 12.300781 -13.304688 11.375 -12.890625 C 10.457031 -12.472656 9.601562 -11.832031 8.8125 -10.96875 L 8.8125 0 L 0.671875 0 L 0.671875 -20.328125 L 8.8125 -20.328125 L 8.8125 -16.9375 C 9.707031 -18.269531 10.832031 -19.222656 12.1875 -19.796875 C 13.550781 -20.367188 15.054688 -20.65625 16.703125 -20.65625 Z M 16.703125 -20.65625 "/></g></g></g><g fill="#ffffff" fill-opacity="1"><g transform="translate(326.247145, 158.573178)"><g><path d="M 14.234375 -20.65625 C 17.003906 -20.65625 19.363281 -20.3125 21.3125 -19.625 C 23.269531 -18.9375 24.765625 -17.816406 25.796875 -16.265625 C 26.828125 -14.722656 27.351562 -12.65625 27.375 -10.0625 L 27.375 0 L 19.234375 0 L 19.234375 -2.46875 C 17.660156 -1.320312 16.007812 -0.566406 14.28125 -0.203125 C 12.550781 0.160156 10.804688 0.34375 9.046875 0.34375 C 7.503906 0.34375 6.066406 0.144531 4.734375 -0.25 C 3.410156 -0.644531 2.347656 -1.285156 1.546875 -2.171875 C 0.742188 -3.066406 0.34375 -4.25 0.34375 -5.71875 C 0.34375 -7.050781 0.6875 -8.144531 1.375 -9 C 2.0625 -9.863281 2.976562 -10.539062 4.125 -11.03125 C 5.28125 -11.53125 6.566406 -11.878906 7.984375 -12.078125 C 9.410156 -12.285156 10.867188 -12.390625 12.359375 -12.390625 C 13.785156 -12.390625 15.054688 -12.300781 16.171875 -12.125 C 17.296875 -11.945312 18.316406 -11.6875 19.234375 -11.34375 C 19.234375 -12.15625 18.976562 -12.742188 18.46875 -13.109375 C 17.96875 -13.472656 17.316406 -13.691406 16.515625 -13.765625 C 15.710938 -13.847656 14.859375 -13.890625 13.953125 -13.890625 C 12.640625 -13.890625 11.226562 -13.816406 9.71875 -13.671875 C 8.207031 -13.523438 6.515625 -13.25 4.640625 -12.84375 L 2 -18.59375 C 4.03125 -19.25 6.109375 -19.753906 8.234375 -20.109375 C 10.359375 -20.472656 12.359375 -20.65625 14.234375 -20.65625 Z M 19.234375 -6.640625 L 19.234375 -7.484375 C 17.953125 -7.828125 16.160156 -8 13.859375 -8 C 11.984375 -8 10.613281 -7.890625 9.75 -7.671875 C 8.894531 -7.453125 8.46875 -7.019531 8.46875 -6.375 C 8.46875 -5.800781 8.707031 -5.441406 9.1875 -5.296875 C 9.675781 -5.148438 10.441406 -5.078125 11.484375 -5.078125 C 12.859375 -5.078125 14.238281 -5.226562 15.625 -5.53125 C 17.019531 -5.84375 18.222656 -6.210938 19.234375 -6.640625 Z M 19.234375 -6.640625 "/></g></g></g><g fill="#ffffff" fill-opacity="1"><g transform="translate(354.293944, 158.573178)"><g><path d="M 0.671875 -27.09375 L 8.8125 -27.09375 L 8.8125 0 L 0.671875 0 Z M 0.671875 -27.09375 "/></g></g></g><g fill="#ffffff" fill-opacity="1"><g transform="translate(363.778365, 158.573178)"><g><path d="M 0.671875 -27.09375 L 8.8125 -27.09375 L 8.8125 -21.6875 L 0.671875 -21.6875 Z M 0.671875 -20.328125 L 8.8125 -20.328125 L 8.8125 0 L 0.671875 0 Z M 0.671875 -20.328125 "/></g></g></g><g fill="#ffffff" fill-opacity="1"><g transform="translate(373.262786, 158.573178)"><g><path d="M 24.1875 -20.328125 L 24.1875 -13.546875 L 12.53125 -6.78125 L 24.1875 -6.78125 L 24.1875 0 L 0.671875 0 L 0.671875 -6.78125 L 12.328125 -13.546875 L 0.671875 -13.546875 L 0.671875 -20.328125 Z M 24.1875 -20.328125 "/></g></g></g><g fill="#ffffff" fill-opacity="1"><g transform="translate(398.125507, 158.573178)"><g><path d="M 13.828125 -6.09375 C 14.816406 -6.09375 15.632812 -6.125 16.28125 -6.1875 C 16.925781 -6.257812 17.503906 -6.410156 18.015625 -6.640625 C 18.535156 -6.867188 19.066406 -7.195312 19.609375 -7.625 L 27.578125 -7.625 C 27.078125 -4.9375 25.703125 -2.9375 23.453125 -1.625 C 21.210938 -0.3125 18.003906 0.34375 13.828125 0.34375 C 11.179688 0.34375 8.84375 -0.0078125 6.8125 -0.71875 C 4.78125 -1.4375 3.191406 -2.5625 2.046875 -4.09375 C 0.910156 -5.632812 0.34375 -7.65625 0.34375 -10.15625 C 0.34375 -12.664062 0.914062 -14.691406 2.0625 -16.234375 C 3.21875 -17.785156 4.832031 -18.910156 6.90625 -19.609375 C 8.988281 -20.304688 11.40625 -20.65625 14.15625 -20.65625 C 16.957031 -20.65625 19.382812 -20.28125 21.4375 -19.53125 C 23.5 -18.789062 25.09375 -17.554688 26.21875 -15.828125 C 27.34375 -14.109375 27.90625 -11.769531 27.90625 -8.8125 L 8.640625 -8.8125 C 8.867188 -8.082031 9.242188 -7.519531 9.765625 -7.125 C 10.296875 -6.726562 10.914062 -6.457031 11.625 -6.3125 C 12.34375 -6.164062 13.078125 -6.09375 13.828125 -6.09375 Z M 14.125 -14.90625 C 13.039062 -14.90625 12.03125 -14.796875 11.09375 -14.578125 C 10.15625 -14.367188 9.460938 -13.800781 9.015625 -12.875 L 19.234375 -12.875 C 18.785156 -13.800781 18.09375 -14.367188 17.15625 -14.578125 C 16.21875 -14.796875 15.207031 -14.90625 14.125 -14.90625 Z M 14.125 -14.90625 "/></g></g></g><g fill="#ffffff" fill-opacity="1"><g transform="translate(426.375543, 158.573178)"><g><path d="M 19.84375 -27.09375 L 27.984375 -27.09375 L 27.984375 0 L 19.84375 0 L 19.84375 -2.78125 C 18.789062 -1.695312 17.523438 -0.90625 16.046875 -0.40625 C 14.566406 0.09375 13.035156 0.34375 11.453125 0.34375 C 10.140625 0.34375 8.828125 0.179688 7.515625 -0.140625 C 6.210938 -0.472656 5.015625 -1.035156 3.921875 -1.828125 C 2.835938 -2.617188 1.96875 -3.691406 1.3125 -5.046875 C 0.664062 -6.398438 0.34375 -8.101562 0.34375 -10.15625 C 0.34375 -12.21875 0.664062 -13.925781 1.3125 -15.28125 C 1.96875 -16.632812 2.835938 -17.707031 3.921875 -18.5 C 5.015625 -19.289062 6.210938 -19.847656 7.515625 -20.171875 C 8.828125 -20.492188 10.140625 -20.65625 11.453125 -20.65625 C 13.035156 -20.65625 14.566406 -20.40625 16.046875 -19.90625 C 17.523438 -19.414062 18.789062 -18.628906 19.84375 -17.546875 Z M 14.15625 -6.4375 C 15.96875 -6.4375 17.367188 -6.679688 18.359375 -7.171875 C 19.347656 -7.671875 19.84375 -8.664062 19.84375 -10.15625 C 19.84375 -11.644531 19.347656 -12.640625 18.359375 -13.140625 C 17.367188 -13.640625 15.96875 -13.890625 14.15625 -13.890625 C 12.351562 -13.890625 10.953125 -13.640625 9.953125 -13.140625 C 8.960938 -12.640625 8.46875 -11.644531 8.46875 -10.15625 C 8.46875 -8.664062 8.960938 -7.671875 9.953125 -7.171875 C 10.953125 -6.679688 12.351562 -6.4375 14.15625 -6.4375 Z M 14.15625 -6.4375 "/></g></g></g><g fill="#ffffff" fill-opacity="1"><g transform="translate(144.445699, 205.733346)"><g><path d="M 29.46875 -23.71875 L 29.46875 -16.265625 L 19.3125 -16.265625 L 19.3125 0 L 10.5 0 L 10.5 -16.265625 L 0.34375 -16.265625 L 0.34375 -23.71875 Z M 29.46875 -23.71875 "/></g></g></g><g fill="#ffffff" fill-opacity="1"><g transform="translate(174.253879, 205.733346)"><g><path d="M 13.828125 -6.09375 C 14.816406 -6.09375 15.632812 -6.125 16.28125 -6.1875 C 16.925781 -6.257812 17.503906 -6.410156 18.015625 -6.640625 C 18.535156 -6.867188 19.066406 -7.195312 19.609375 -7.625 L 27.578125 -7.625 C 27.078125 -4.9375 25.703125 -2.9375 23.453125 -1.625 C 21.210938 -0.3125 18.003906 0.34375 13.828125 0.34375 C 11.179688 0.34375 8.84375 -0.0078125 6.8125 -0.71875 C 4.78125 -1.4375 3.191406 -2.5625 2.046875 -4.09375 C 0.910156 -5.632812 0.34375 -7.65625 0.34375 -10.15625 C 0.34375 -12.664062 0.914062 -14.691406 2.0625 -16.234375 C 3.21875 -17.785156 4.832031 -18.910156 6.90625 -19.609375 C 8.988281 -20.304688 11.40625 -20.65625 14.15625 -20.65625 C 16.957031 -20.65625 19.382812 -20.28125 21.4375 -19.53125 C 23.5 -18.789062 25.09375 -17.554688 26.21875 -15.828125 C 27.34375 -14.109375 27.90625 -11.769531 27.90625 -8.8125 L 8.640625 -8.8125 C 8.867188 -8.082031 9.242188 -7.519531 9.765625 -7.125 C 10.296875 -6.726562 10.914062 -6.457031 11.625 -6.3125 C 12.34375 -6.164062 13.078125 -6.09375 13.828125 -6.09375 Z M 14.125 -14.90625 C 13.039062 -14.90625 12.03125 -14.796875 11.09375 -14.578125 C 10.15625 -14.367188 9.460938 -13.800781 9.015625 -12.875 L 19.234375 -12.875 C 18.785156 -13.800781 18.09375 -14.367188 17.15625 -14.578125 C 16.21875 -14.796875 15.207031 -14.90625 14.125 -14.90625 Z M 14.125 -14.90625 "/></g></g></g><g fill="#ffffff" fill-opacity="1"><g transform="translate(202.503904, 205.733346)"><g><path d="M 0.34375 -10.15625 C 0.34375 -12.664062 0.894531 -14.691406 2 -16.234375 C 3.101562 -17.785156 4.6875 -18.910156 6.75 -19.609375 C 8.820312 -20.304688 11.289062 -20.65625 14.15625 -20.65625 C 16.84375 -20.65625 19.164062 -20.347656 21.125 -19.734375 C 23.09375 -19.128906 24.660156 -18.171875 25.828125 -16.859375 C 26.992188 -15.554688 27.6875 -13.832031 27.90625 -11.6875 L 19.609375 -11.6875 C 19.296875 -12.539062 18.675781 -13.117188 17.75 -13.421875 C 16.820312 -13.734375 15.625 -13.890625 14.15625 -13.890625 C 12.351562 -13.890625 10.953125 -13.640625 9.953125 -13.140625 C 8.960938 -12.640625 8.46875 -11.644531 8.46875 -10.15625 C 8.46875 -8.664062 8.960938 -7.671875 9.953125 -7.171875 C 10.953125 -6.679688 12.351562 -6.4375 14.15625 -6.4375 C 15.625 -6.4375 16.820312 -6.585938 17.75 -6.890625 C 18.675781 -7.191406 19.296875 -7.773438 19.609375 -8.640625 L 27.90625 -8.640625 C 27.6875 -6.515625 26.992188 -4.789062 25.828125 -3.46875 C 24.660156 -2.144531 23.09375 -1.175781 21.125 -0.5625 C 19.164062 0.0390625 16.84375 0.34375 14.15625 0.34375 C 11.289062 0.34375 8.820312 -0.0078125 6.75 -0.71875 C 4.6875 -1.4375 3.101562 -2.5625 2 -4.09375 C 0.894531 -5.632812 0.34375 -7.65625 0.34375 -10.15625 Z M 0.34375 -10.15625 "/></g></g></g><g fill="#ffffff" fill-opacity="1"><g transform="translate(230.753929, 205.733346)"><g><path d="M 18.625 -20.65625 C 19.78125 -20.65625 20.925781 -20.535156 22.0625 -20.296875 C 23.207031 -20.066406 24.257812 -19.640625 25.21875 -19.015625 C 26.175781 -18.398438 26.941406 -17.515625 27.515625 -16.359375 C 28.097656 -15.210938 28.390625 -13.722656 28.390625 -11.890625 L 28.390625 0 L 20.25 0 L 20.25 -8.578125 C 20.25 -10.304688 19.890625 -11.566406 19.171875 -12.359375 C 18.453125 -13.148438 17.175781 -13.546875 15.34375 -13.546875 C 14.144531 -13.546875 12.953125 -13.304688 11.765625 -12.828125 C 10.585938 -12.359375 9.601562 -11.738281 8.8125 -10.96875 L 8.8125 0 L 0.671875 0 L 0.671875 -27.09375 L 8.8125 -27.09375 L 8.8125 -17.609375 C 10.03125 -18.472656 11.441406 -19.195312 13.046875 -19.78125 C 14.648438 -20.363281 16.507812 -20.65625 18.625 -20.65625 Z M 18.625 -20.65625 "/></g></g></g><g fill="#ffffff" fill-opacity="1"><g transform="translate(259.816905, 205.733346)"><g><path d="M 18.625 -20.65625 C 19.78125 -20.65625 20.925781 -20.535156 22.0625 -20.296875 C 23.207031 -20.066406 24.257812 -19.640625 25.21875 -19.015625 C 26.175781 -18.398438 26.941406 -17.515625 27.515625 -16.359375 C 28.097656 -15.210938 28.390625 -13.722656 28.390625 -11.890625 L 28.390625 0 L 20.25 0 L 20.25 -8.578125 C 20.25 -10.304688 19.890625 -11.566406 19.171875 -12.359375 C 18.453125 -13.148438 17.175781 -13.546875 15.34375 -13.546875 C 14.144531 -13.546875 12.953125 -13.304688 11.765625 -12.828125 C 10.585938 -12.359375 9.601562 -11.738281 8.8125 -10.96875 L 8.8125 0 L 0.671875 0 L 0.671875 -20.328125 L 8.8125 -20.328125 L 8.8125 -17.609375 C 10.03125 -18.472656 11.441406 -19.195312 13.046875 -19.78125 C 14.648438 -20.363281 16.507812 -20.65625 18.625 -20.65625 Z M 18.625 -20.65625 "/></g></g></g><g fill="#ffffff" fill-opacity="1"><g transform="translate(288.879881, 205.733346)"><g><path d="M 14.15625 0.34375 C 11.289062 0.34375 8.820312 -0.0078125 6.75 -0.71875 C 4.6875 -1.4375 3.101562 -2.5625 2 -4.09375 C 0.894531 -5.632812 0.34375 -7.65625 0.34375 -10.15625 C 0.34375 -12.664062 0.894531 -14.691406 2 -16.234375 C 3.101562 -17.785156 4.6875 -18.910156 6.75 -19.609375 C 8.820312 -20.304688 11.289062 -20.65625 14.15625 -20.65625 C 17.050781 -20.65625 19.523438 -20.304688 21.578125 -19.609375 C 23.628906 -18.910156 25.207031 -17.785156 26.3125 -16.234375 C 27.425781 -14.691406 27.984375 -12.664062 27.984375 -10.15625 C 27.984375 -7.65625 27.425781 -5.632812 26.3125 -4.09375 C 25.207031 -2.5625 23.628906 -1.4375 21.578125 -0.71875 C 19.523438 -0.0078125 17.050781 0.34375 14.15625 0.34375 Z M 14.15625 -6.4375 C 15.96875 -6.4375 17.367188 -6.679688 18.359375 -7.171875 C 19.347656 -7.671875 19.84375 -8.664062 19.84375 -10.15625 C 19.84375 -11.644531 19.347656 -12.640625 18.359375 -13.140625 C 17.367188 -13.640625 15.96875 -13.890625 14.15625 -13.890625 C 12.351562 -13.890625 10.953125 -13.640625 9.953125 -13.140625 C 8.960938 -12.640625 8.46875 -11.644531 8.46875 -10.15625 C 8.46875 -8.664062 8.960938 -7.671875 9.953125 -7.171875 C 10.953125 -6.679688 12.351562 -6.4375 14.15625 -6.4375 Z M 14.15625 -6.4375 "/></g></g></g><g fill="#ffffff" fill-opacity="1"><g transform="translate(317.197652, 205.733346)"><g><path d="M 0.671875 -27.09375 L 8.8125 -27.09375 L 8.8125 0 L 0.671875 0 Z M 0.671875 -27.09375 "/></g></g></g><g fill="#ffffff" fill-opacity="1"><g transform="translate(326.682073, 205.733346)"><g><path d="M 14.15625 0.34375 C 11.289062 0.34375 8.820312 -0.0078125 6.75 -0.71875 C 4.6875 -1.4375 3.101562 -2.5625 2 -4.09375 C 0.894531 -5.632812 0.34375 -7.65625 0.34375 -10.15625 C 0.34375 -12.664062 0.894531 -14.691406 2 -16.234375 C 3.101562 -17.785156 4.6875 -18.910156 6.75 -19.609375 C 8.820312 -20.304688 11.289062 -20.65625 14.15625 -20.65625 C 17.050781 -20.65625 19.523438 -20.304688 21.578125 -19.609375 C 23.628906 -18.910156 25.207031 -17.785156 26.3125 -16.234375 C 27.425781 -14.691406 27.984375 -12.664062 27.984375 -10.15625 C 27.984375 -7.65625 27.425781 -5.632812 26.3125 -4.09375 C 25.207031 -2.5625 23.628906 -1.4375 21.578125 -0.71875 C 19.523438 -0.0078125 17.050781 0.34375 14.15625 0.34375 Z M 14.15625 -6.4375 C 15.96875 -6.4375 17.367188 -6.679688 18.359375 -7.171875 C 19.347656 -7.671875 19.84375 -8.664062 19.84375 -10.15625 C 19.84375 -11.644531 19.347656 -12.640625 18.359375 -13.140625 C 17.367188 -13.640625 15.96875 -13.890625 14.15625 -13.890625 C 12.351562 -13.890625 10.953125 -13.640625 9.953125 -13.140625 C 8.960938 -12.640625 8.46875 -11.644531 8.46875 -10.15625 C 8.46875 -8.664062 8.960938 -7.671875 9.953125 -7.171875 C 10.953125 -6.679688 12.351562 -6.4375 14.15625 -6.4375 Z M 14.15625 -6.4375 "/></g></g></g><g fill="#ffffff" fill-opacity="1"><g transform="translate(354.999844, 205.733346)"><g><path d="M 19.84375 -20.328125 L 27.984375 -20.328125 L 27.984375 -2.609375 C 27.984375 -0.578125 27.648438 1.140625 26.984375 2.546875 C 26.316406 3.960938 25.390625 5.101562 24.203125 5.96875 C 23.015625 6.84375 21.644531 7.476562 20.09375 7.875 C 18.550781 8.269531 16.910156 8.46875 15.171875 8.46875 C 13.253906 8.46875 11.445312 8.367188 9.75 8.171875 C 8.0625 7.984375 6.585938 7.757812 5.328125 7.5 C 4.078125 7.238281 3.125 7.03125 2.46875 6.875 L 2.46875 0.265625 C 3.257812 0.398438 4.25 0.582031 5.4375 0.8125 C 6.625 1.039062 7.925781 1.242188 9.34375 1.421875 C 10.769531 1.597656 12.21875 1.6875 13.6875 1.6875 C 15.019531 1.6875 16.132812 1.535156 17.03125 1.234375 C 17.9375 0.929688 18.625 0.347656 19.09375 -0.515625 C 19.570312 -1.390625 19.820312 -2.6875 19.84375 -4.40625 C 18.96875 -3.34375 17.804688 -2.507812 16.359375 -1.90625 C 14.910156 -1.3125 13.160156 -1.015625 11.109375 -1.015625 C 9.003906 -1.015625 7.144531 -1.359375 5.53125 -2.046875 C 3.914062 -2.734375 2.644531 -3.800781 1.71875 -5.25 C 0.800781 -6.695312 0.34375 -8.5625 0.34375 -10.84375 C 0.34375 -13.125 0.800781 -14.984375 1.71875 -16.421875 C 2.644531 -17.867188 3.914062 -18.9375 5.53125 -19.625 C 7.144531 -20.3125 9.003906 -20.65625 11.109375 -20.65625 C 13.160156 -20.65625 14.910156 -20.359375 16.359375 -19.765625 C 17.804688 -19.171875 18.96875 -18.34375 19.84375 -17.28125 Z M 14.15625 -7.796875 C 16.300781 -7.796875 17.785156 -8.015625 18.609375 -8.453125 C 19.429688 -8.890625 19.84375 -9.6875 19.84375 -10.84375 C 19.84375 -11.988281 19.429688 -12.78125 18.609375 -13.21875 C 17.785156 -13.664062 16.300781 -13.890625 14.15625 -13.890625 C 12.007812 -13.890625 10.523438 -13.664062 9.703125 -13.21875 C 8.878906 -12.78125 8.46875 -11.988281 8.46875 -10.84375 C 8.46875 -9.6875 8.878906 -8.890625 9.703125 -8.453125 C 10.523438 -8.015625 12.007812 -7.796875 14.15625 -7.796875 Z M 14.15625 -7.796875 "/></g></g></g><g fill="#ffffff" fill-opacity="1"><g transform="translate(383.656333, 205.733346)"><g><path d="M 0.671875 -27.09375 L 8.8125 -27.09375 L 8.8125 -21.6875 L 0.671875 -21.6875 Z M 0.671875 -20.328125 L 8.8125 -20.328125 L 8.8125 0 L 0.671875 0 Z M 0.671875 -20.328125 "/></g></g></g><g fill="#ffffff" fill-opacity="1"><g transform="translate(393.140754, 205.733346)"><g><path d="M 13.828125 -6.09375 C 14.816406 -6.09375 15.632812 -6.125 16.28125 -6.1875 C 16.925781 -6.257812 17.503906 -6.410156 18.015625 -6.640625 C 18.535156 -6.867188 19.066406 -7.195312 19.609375 -7.625 L 27.578125 -7.625 C 27.078125 -4.9375 25.703125 -2.9375 23.453125 -1.625 C 21.210938 -0.3125 18.003906 0.34375 13.828125 0.34375 C 11.179688 0.34375 8.84375 -0.0078125 6.8125 -0.71875 C 4.78125 -1.4375 3.191406 -2.5625 2.046875 -4.09375 C 0.910156 -5.632812 0.34375 -7.65625 0.34375 -10.15625 C 0.34375 -12.664062 0.914062 -14.691406 2.0625 -16.234375 C 3.21875 -17.785156 4.832031 -18.910156 6.90625 -19.609375 C 8.988281 -20.304688 11.40625 -20.65625 14.15625 -20.65625 C 16.957031 -20.65625 19.382812 -20.28125 21.4375 -19.53125 C 23.5 -18.789062 25.09375 -17.554688 26.21875 -15.828125 C 27.34375 -14.109375 27.90625 -11.769531 27.90625 -8.8125 L 8.640625 -8.8125 C 8.867188 -8.082031 9.242188 -7.519531 9.765625 -7.125 C 10.296875 -6.726562 10.914062 -6.457031 11.625 -6.3125 C 12.34375 -6.164062 13.078125 -6.09375 13.828125 -6.09375 Z M 14.125 -14.90625 C 13.039062 -14.90625 12.03125 -14.796875 11.09375 -14.578125 C 10.15625 -14.367188 9.460938 -13.800781 9.015625 -12.875 L 19.234375 -12.875 C 18.785156 -13.800781 18.09375 -14.367188 17.15625 -14.578125 C 16.21875 -14.796875 15.207031 -14.90625 14.125 -14.90625 Z M 14.125 -14.90625 "/></g></g></g><g fill="#ffffff" fill-opacity="1"><g transform="translate(421.390791, 205.733346)"><g><path d="M 0.34375 -7.015625 L 8.46875 -7.015625 C 8.46875 -6.628906 8.625 -6.316406 8.9375 -6.078125 C 9.257812 -5.835938 9.851562 -5.664062 10.71875 -5.5625 C 11.59375 -5.46875 12.84375 -5.421875 14.46875 -5.421875 C 15.976562 -5.421875 17.109375 -5.445312 17.859375 -5.5 C 18.617188 -5.5625 19.128906 -5.671875 19.390625 -5.828125 C 19.648438 -5.984375 19.78125 -6.207031 19.78125 -6.5 C 19.78125 -6.84375 19.648438 -7.082031 19.390625 -7.21875 C 19.128906 -7.351562 18.59375 -7.4375 17.78125 -7.46875 C 16.96875 -7.5 15.75 -7.550781 14.125 -7.625 C 11.007812 -7.757812 8.460938 -7.976562 6.484375 -8.28125 C 4.503906 -8.582031 3.039062 -9.160156 2.09375 -10.015625 C 1.144531 -10.878906 0.671875 -12.171875 0.671875 -13.890625 C 0.671875 -15.335938 1.03125 -16.503906 1.75 -17.390625 C 2.476562 -18.285156 3.476562 -18.96875 4.75 -19.4375 C 6.03125 -19.914062 7.5 -20.238281 9.15625 -20.40625 C 10.820312 -20.570312 12.59375 -20.65625 14.46875 -20.65625 C 16.34375 -20.65625 18.054688 -20.570312 19.609375 -20.40625 C 21.171875 -20.238281 22.519531 -19.914062 23.65625 -19.4375 C 24.800781 -18.96875 25.679688 -18.28125 26.296875 -17.375 C 26.921875 -16.46875 27.234375 -15.285156 27.234375 -13.828125 L 19.109375 -13.828125 C 19.109375 -14.367188 18.726562 -14.679688 17.96875 -14.765625 C 17.207031 -14.859375 15.925781 -14.90625 14.125 -14.90625 C 12.75 -14.90625 11.675781 -14.894531 10.90625 -14.875 C 10.132812 -14.851562 9.59375 -14.789062 9.28125 -14.6875 C 8.96875 -14.582031 8.8125 -14.394531 8.8125 -14.125 C 8.8125 -13.851562 8.953125 -13.65625 9.234375 -13.53125 C 9.515625 -13.40625 10.082031 -13.3125 10.9375 -13.25 C 11.800781 -13.195312 13.085938 -13.128906 14.796875 -13.046875 C 16.804688 -12.953125 18.613281 -12.816406 20.21875 -12.640625 C 21.820312 -12.472656 23.195312 -12.1875 24.34375 -11.78125 C 25.5 -11.375 26.378906 -10.78125 26.984375 -10 C 27.597656 -9.226562 27.90625 -8.175781 27.90625 -6.84375 C 27.90625 -5.28125 27.582031 -4.023438 26.9375 -3.078125 C 26.300781 -2.128906 25.398438 -1.40625 24.234375 -0.90625 C 23.078125 -0.414062 21.695312 -0.0859375 20.09375 0.078125 C 18.488281 0.253906 16.722656 0.34375 14.796875 0.34375 C 12.878906 0.34375 11.050781 0.25 9.3125 0.0625 C 7.570312 -0.113281 6.03125 -0.445312 4.6875 -0.9375 C 3.34375 -1.4375 2.28125 -2.175781 1.5 -3.15625 C 0.726562 -4.144531 0.34375 -5.429688 0.34375 -7.015625 Z M 0.34375 -7.015625 "/></g></g></g></svg>