<svg width="90" height="38" viewBox="0 0 90 38" fill="none" xmlns="http://www.w3.org/2000/svg"><path fill-rule="evenodd" clip-rule="evenodd" d="M28.807 0h32.387C62.744 0 64 1.219 64 2.722v32.554C64 36.78 62.745 38 61.194 38H28.807C27.257 38 26 36.781 26 35.276V2.722C26 1.22 27.257 0 28.807 0zm20.985 20.496c1.278 1.035 2.682 1.67 4.183 1.67a3.688 3.688 0 003.675-3.672 3.682 3.682 0 00-3.675-3.68c-2.702 0-3.58 2.612-3.858 4.168l-.014.053-.31 1.46zm-3.033-3.47c1.087-3.694 3.764-5.94 7.216-5.94 4.074 0 7.39 3.321 7.394 7.392 0 4.08-3.317 7.422-7.391 7.422-1.906 0-3.568-.581-5.014-1.508l-1.648 7.772H43.51l2.277-10.715c-1.075-1.354-1.96-2.876-2.682-4.384v1.624c0 3.964-3.224 7.218-7.182 7.218-3.959 0-7.182-3.254-7.169-7.218v-9.68h3.716v9.68a3.466 3.466 0 003.459 3.463 3.468 3.468 0 003.46-3.463v-9.68h3.714c.737 2.524 1.993 5.52 3.655 8.016z" fill="#fff"/><path d="M10.82 2.705c.85-1.347 1.219-2.602 1.219-2.602S10.922.479 9.55 1.57C8.297 2.708 6.846 4.689 6.948 7.28c1.875-1.507 3.112-3.12 3.871-4.575zM3.661 17.672l-.072 1.059c-.013.225.14.425.365.43.216.018.41-.165.423-.382l.073-1.056c1.54-.93 2.597-2.258 3.261-3.442.336-.656.636-1.247.852-1.671.175-.45.289-.723.289-.723s-1.001.097-2.233.901c-.872.666-2.043 1.88-2.477 3.814-.003 0-.005-.003-.009-.003.015-1.995-.226-3.582-.724-4.843-.454-1.49-1.11-2.411-1.11-2.411l-.274.946c-.145.592-.334 1.403-.278 2.352.012 1.719.444 3.735 1.914 5.03z" fill="#fff"/><path d="M4.624 12.193a.4.4 0 00.26.518c.204.066.416-.067.494-.274l.332-.974c1.678-.504 2.772-1.616 3.722-2.527a8.708 8.708 0 001.08-1.42c.258-.371.427-.59.427-.59s-1.038-.187-2.23.383c-.994.434-2.244 1.316-3.06 2.967l-.023-.007c.412-1.825.425-3.341.258-4.596-.26-1.548-.615-2.503-.615-2.503-.137-.135-2.645 4.868-.329 8.08l-.316.943zM6.932 30.77c.291.423.832 1.193.874 1.153.164.17.424.188.578.033a.41.41 0 00.01-.569c-.042.03-.585-.736-.859-1.128 1.415-4.426.54-7.962.694-8.2 0 0-1.125.616-1.74 2.03-.656 1.234-1.013 3.525.364 5.824-.01.007-.019.01-.027.017-.015.01-.023.026-.034.038-1.605-2.135-2.973-3.681-4.25-4.89-1.51-1.325-2.53-2.002-2.529-2.008-.083-.034.217 1.988 1.43 4.138 1.117 1.965 3.215 3.65 5.489 3.561z" fill="#fff"/><path d="M11.872 35.441l2.557 1.603c.194.13.445.03.534-.163.094-.217 0-.441-.183-.563l-2.522-1.588c-.11-2.446-.769-4.434-1.33-5.834-.52-1.554-1.143-2.553-1.1-2.599 0 0-.864.996-.978 2.709-.247 1.611.451 3.954 2.769 5.716-.016.017-.034.031-.048.052-2.414-1.543-4.558-2.407-6.23-3.162-1.932-.715-3.256-1.008-3.256-1.008s.18.503.71 1.19c.54.66 1.265 1.6 2.265 2.378 1.925 1.475 4.606 2.353 6.812 1.27zM4.111 24.598l.388 1.425c.063.225.276.358.48.276a.462.462 0 00.265-.539l-.372-1.37c1.419-1.639 2.323-3.413 2.74-4.86.633-1.579.642-2.855.714-2.875 0 0-1.143.3-2.255 1.5-1.032 1.037-2.092 2.994-1.684 5.646-.028-.002-.056-.008-.084-.003-.676-2.585-1.481-4.556-2.3-6.034C1.045 16.117.13 15.178.13 15.178s-.112.448-.092 1.197a18 18 0 00.224 2.885c.508 2.114 1.618 4.516 3.85 5.338zM79.18 2.705A11.511 11.511 0 0177.962.103s1.117.376 2.488 1.468c1.254 1.137 2.705 3.118 2.603 5.709-1.875-1.507-3.112-3.12-3.871-4.575zm7.158 14.967l.073 1.059c.013.225-.14.425-.365.43-.216.018-.41-.165-.423-.382l-.073-1.056c-1.54-.93-2.597-2.258-3.261-3.442-.336-.656-.636-1.247-.852-1.671-.175-.45-.289-.723-.289-.723s1.002.097 2.233.901c.871.666 2.043 1.88 2.477 3.814.003 0 .005-.003.009-.003-.014-1.995.226-3.582.724-4.843.454-1.49 1.11-2.411 1.11-2.411l.274.946c.145.592.334 1.403.278 2.352-.012 1.719-.444 3.735-1.915 5.03z" fill="#fff"/><path d="M85.376 12.193a.4.4 0 01-.26.518c-.204.066-.416-.067-.494-.274l-.332-.974c-1.678-.504-2.772-1.616-3.722-2.527a8.708 8.708 0 01-1.08-1.42c-.258-.371-.427-.59-.427-.59s1.038-.187 2.23.383c.994.434 2.244 1.316 3.06 2.967l.023-.007c-.412-1.825-.425-3.341-.258-4.596.26-1.548.615-2.503.615-2.503.137-.135 2.645 4.868.329 8.08l.316.943zM83.068 30.77c-.291.423-.832 1.193-.874 1.153-.164.17-.424.188-.578.033a.41.41 0 01-.01-.569c.042.03.585-.736.859-1.128-1.415-4.426-.54-7.962-.695-8.2 0 0 1.126.616 1.74 2.03.656 1.234 1.014 3.525-.363 5.824.01.007.019.01.027.017.015.01.022.026.034.038 1.605-2.135 2.973-3.681 4.25-4.89 1.51-1.325 2.53-2.002 2.529-2.008.083-.034-.217 1.988-1.43 4.138-1.117 1.965-3.215 3.65-5.489 3.561z" fill="#fff"/><path d="M78.128 35.441l-2.557 1.603c-.194.13-.445.03-.534-.163-.094-.217 0-.441.183-.563l2.522-1.588c.11-2.446.769-4.434 1.33-5.834.52-1.554 1.143-2.553 1.1-2.599 0 0 .864.996.978 2.709.247 1.611-.451 3.954-2.769 5.716.016.017.034.031.048.052 2.414-1.543 4.558-2.407 6.23-3.162 1.932-.715 3.256-1.008 3.256-1.008s-.18.503-.71 1.19c-.54.66-1.265 1.6-2.265 2.378-1.925 1.475-4.606 2.353-6.812 1.27zm7.76-10.843l-.387 1.425c-.063.225-.276.358-.48.276a.462.462 0 01-.265-.539l.372-1.37c-1.419-1.639-2.323-3.413-2.74-4.86-.633-1.579-.642-2.855-.714-2.875 0 0 1.143.3 2.255 1.5 1.032 1.037 2.092 2.994 1.683 5.646.029-.002.057-.008.085-.003.676-2.585 1.481-4.556 2.3-6.034.959-1.647 1.873-2.586 1.873-2.586s.112.448.092 1.197a18 18 0 01-.224 2.885c-.508 2.114-1.618 4.516-3.85 5.338z" fill="#fff"/></svg>