<svg width="169" height="40" viewBox="0 0 169 40" fill="none" xmlns="http://www.w3.org/2000/svg"><path d="M61.16 25.663v-11.2h2.625v4.416h4.24v-4.416h2.624v11.2h-2.624v-4.416h-4.24v4.416H61.16zm19.581-11.2l4.416 11.2h-2.784l-.88-2.368H77.03l-.88 2.368h-2.784l4.416-11.2h2.96zm-2.848 6.464h2.72l-1.36-3.6-1.36 3.6zm9.984 4.736v-11.2h2.624v8.832h5.216v2.368h-7.84zm15.866.16c-1.674 0-3.061-.534-4.16-1.6-1.088-1.067-1.632-2.454-1.632-4.16 0-1.707.544-3.094 1.632-4.16 1.088-1.067 2.475-1.6 4.16-1.6 1.686 0 3.072.533 4.16 1.6 1.099 1.066 1.648 2.453 1.648 4.16 0 1.706-.549 3.093-1.648 4.16-1.088 1.066-2.474 1.6-4.16 1.6zm-2.208-3.408c.566.586 1.302.88 2.208.88.907 0 1.643-.294 2.208-.88.566-.598.848-1.382.848-2.352 0-.96-.288-1.74-.864-2.336-.565-.598-1.296-.896-2.192-.896-.906 0-1.642.298-2.208.896-.565.597-.848 1.376-.848 2.336 0 .97.283 1.754.848 2.352zm16.877 3.248v-11.2h2.624v8.832h5.216v2.368h-7.84zm17.159-11.2l4.416 11.2h-2.784l-.88-2.368h-4.464l-.88 2.368h-2.784l4.416-11.2h2.96zm-2.848 6.464h2.72l-1.36-3.6-1.36 3.6zm9.984 4.736v-11.2h5.04c1.12 0 1.995.277 2.624.832.64.554.96 1.306.96 2.256 0 .917-.421 1.616-1.264 2.096 1.045.565 1.568 1.44 1.568 2.624 0 1.088-.331 1.925-.992 2.512-.661.586-1.632.88-2.912.88h-5.024zm2.624-6.944h2.16c.363 0 .64-.091.832-.272.203-.182.304-.432.304-.752s-.101-.571-.304-.752c-.192-.192-.469-.288-.832-.288h-2.16v2.064zm0 4.768h2.208c.437 0 .779-.118 1.024-.352.245-.246.368-.566.368-.96 0-.395-.128-.71-.384-.944-.245-.235-.581-.352-1.008-.352h-2.208v2.608z" fill="#fff"/><path fill-rule="evenodd" clip-rule="evenodd" d="M39.165 8.813c-3.408 1.067-6.001 3.665-7.066 7.08a.553.553 0 01-1.062 0c-1.065-3.415-3.657-6.013-7.066-7.08a.554.554 0 010-1.064C27.38 6.68 29.972 4.084 31.037.668a.553.553 0 011.062 0c1.065 3.416 3.658 6.013 7.066 7.08.53.167.53.898 0 1.065" fill="#FFDA93"/><path fill-rule="evenodd" clip-rule="evenodd" d="M19.188 40C8.608 40 0 31.374 0 20.772c0-8.994 6.105-16.697 14.846-18.73a3.205 3.205 0 011.447 6.243c-5.735 1.334-9.897 6.586-9.897 12.487 0 7.068 5.739 12.819 12.792 12.819 6.138 0 11.425-4.383 12.568-10.422a3.196 3.196 0 013.738-2.55 3.204 3.204 0 012.546 3.745C36.323 33.424 28.396 40 19.188 40" fill="#fff"/></svg>