<svg width="28" height="28" viewBox="0 0 28 28" fill="none" xmlns="http://www.w3.org/2000/svg"><path fill-rule="evenodd" clip-rule="evenodd" d="M24.366.935a6.354 6.354 0 012.64 2.646c.609 1.14.933 2.273.933 5.392v5.48a.175.175 0 01-.299.123l-2.064-2.07a.876.876 0 01-.256-.618V9.355c0-2.34-.244-3.189-.7-4.044a4.765 4.765 0 00-1.98-1.984c-.845-.454-1.683-.697-3.963-.702h-3.413a.175.175 0 01-.123-.299l2.065-2.07A.872.872 0 0117.823 0h1.162c3.113 0 4.242.325 5.381.935zm-4.285 3.44a3.496 3.496 0 013.492 3.5v2.216a.175.175 0 01-.295.126L20.462 7.52a1.741 1.741 0 00-.637-.407A1.739 1.739 0 0019.208 7h-8.311a.175.175 0 01-.124-.299l2.068-2.07a.872.872 0 01.617-.256h6.623zm5.537 10.8l2.066 2.07a.88.88 0 01.255.619v1.164c0 3.12-.324 4.252-.933 5.393a6.354 6.354 0 01-2.64 2.646c-1.138.608-2.268.934-5.381.934h-5.467a.175.175 0 01-.123-.3v.002l2.065-2.07a.872.872 0 01.617-.257h2.527c2.335 0 3.182-.243 4.036-.701a4.765 4.765 0 001.98-1.984c.456-.856.7-1.704.7-4.045V15.3a.175.175 0 01.298-.124zm-4.365-4.376l2.066 2.072a.877.877 0 01.255.62v6.637c0 1.933-1.564 3.5-3.493 3.5h-2.21a.175.175 0 01-.127-.296l2.691-2.823a1.74 1.74 0 00.407-.638c.075-.197.112-.407.112-.618v-8.33a.175.175 0 01.299-.124zM.298 13.424l2.066 2.07a.88.88 0 01.256.618v2.533c0 2.34.243 3.189.7 4.044a4.766 4.766 0 001.98 1.984c.854.458 1.7.702 4.036.702h3.34a.175.175 0 01.124.299l-2.067 2.07a.87.87 0 01-.616.256H8.955c-3.114 0-4.242-.325-5.381-.935a6.353 6.353 0 01-2.64-2.646c-.604-1.13-.927-2.25-.934-5.3v-5.572a.175.175 0 01.298-.123zm4.363 4.359l2.817 2.697c.185.187.404.322.636.407.191.073.4.113.617.113h8.312a.175.175 0 01.123.299l-2.068 2.07a.874.874 0 01-.617.256H7.858a3.496 3.496 0 01-3.492-3.5v-2.216a.175.175 0 01.295-.126zM10.07 4.375a.175.175 0 01.125.296L7.503 7.494a1.737 1.737 0 00-.406.638 1.75 1.75 0 00-.113.618v8.33a.175.175 0 01-.297.123L4.62 15.13a.876.876 0 01-.255-.618V7.875c0-1.933 1.563-3.5 3.492-3.5h2.211zM14.421 0a.175.175 0 01.122.299l-2.065 2.07a.873.873 0 01-.617.256H9.335c-2.335 0-3.182.243-4.036.702a4.765 4.765 0 00-1.98 1.984c-.452.846-.695 1.686-.7 3.97v3.422a.175.175 0 01-.298.123l-2.064-2.07A.876.876 0 010 10.139V8.973c0-3.12.324-4.251.933-5.392A6.354 6.354 0 013.573.935C4.7.33 5.82.007 8.861 0h5.56z" fill="#fff"/></svg>