<svg width="90" height="40" viewBox="0 0 90 40" fill="none" xmlns="http://www.w3.org/2000/svg"><path fill-rule="evenodd" clip-rule="evenodd" d="M59.019 5.745c-3.653 2.984-7.634 5.41-11.857 7.214-2.273-4.232-5.13-8.228-8.51-11.914A19.952 19.952 0 0144.998 0 19.938 19.938 0 0159.02 5.745zm-13.46 11.39a55.903 55.903 0 011.508 3.545c-6.739 2.232-12.63 6.873-16.305 13.361A19.927 19.927 0 0125 20.096a52.29 52.29 0 0020.56-2.96zm3.1-1.209a59.063 59.063 0 011.62 3.87 29.213 29.213 0 0114.695.71c.003-.068.007-.135.012-.201.007-.101.014-.202.014-.305 0-4.382-1.426-8.423-3.817-11.719a52.659 52.659 0 01-12.524 7.645zm5.389 21.892c-.257-5.02-1.127-10.012-2.66-14.847a25.79 25.79 0 0113.228.918c-1.204 6.1-5.184 11.19-10.568 13.93zM44.03 14.155c-2.315-4.22-5.213-8.145-8.62-11.709a20 20 0 00-10.132 14.331c6.454.347 12.798-.553 18.752-2.622zm2.286 10.335a26.132 26.132 0 011.864-.668c1.57 4.904 2.425 10.054 2.587 15.325a19.963 19.963 0 01-5.77.853 19.885 19.885 0 01-11.654-3.768c2.822-5.296 7.353-9.415 12.973-11.742z" fill="#fff"/><path d="M10.82 4.577a11.511 11.511 0 001.219-2.602s-1.117.376-2.488 1.469C8.297 4.58 6.846 6.56 6.948 9.152c1.875-1.506 3.112-3.12 3.871-4.575zM3.661 19.545l-.072 1.058c-.013.225.14.425.365.431.216.018.41-.165.423-.383l.073-1.055c1.54-.93 2.597-2.259 3.261-3.442.336-.657.636-1.248.852-1.672.175-.45.289-.723.289-.723s-1.001.097-2.233.902c-.872.665-2.043 1.88-2.477 3.814-.003 0-.005-.003-.009-.004.015-1.994-.226-3.58-.724-4.843-.454-1.49-1.11-2.41-1.11-2.41l-.274.945c-.145.592-.334 1.404-.278 2.353.012 1.718.444 3.734 1.914 5.029z" fill="#fff"/><path d="M4.624 14.066a.4.4 0 00.26.517c.204.066.416-.066.494-.273l.332-.975c1.678-.504 2.772-1.615 3.722-2.526a8.711 8.711 0 001.08-1.42c.258-.372.427-.59.427-.59s-1.038-.187-2.23.383c-.994.434-2.244 1.315-3.06 2.967-.008-.003-.015-.006-.023-.007.412-1.826.425-3.342.258-4.596-.26-1.548-.615-2.503-.615-2.503-.137-.135-2.645 4.868-.329 8.08l-.316.943zm2.308 18.576c.291.424.832 1.194.874 1.153.164.17.424.188.578.034a.41.41 0 00.01-.57c-.042.031-.585-.736-.859-1.127 1.415-4.426.54-7.962.694-8.2 0 0-1.125.616-1.74 2.03-.656 1.234-1.013 3.525.364 5.823-.01.007-.019.01-.027.017-.015.01-.023.027-.034.039-1.605-2.136-2.973-3.681-4.25-4.89-1.51-1.326-2.53-2.003-2.529-2.009-.083-.033.217 1.99 1.43 4.139 1.117 1.964 3.215 3.649 5.489 3.56z" fill="#fff"/><path d="M11.872 37.314l2.557 1.603c.194.13.445.03.534-.164.094-.217 0-.44-.183-.562l-2.522-1.588c-.11-2.446-.769-4.435-1.33-5.835-.52-1.554-1.143-2.553-1.1-2.598 0 0-.864.996-.978 2.708-.247 1.612.451 3.954 2.769 5.716-.016.018-.034.032-.048.053-2.414-1.543-4.558-2.408-6.23-3.162-1.932-.715-3.256-1.009-3.256-1.009s.18.504.71 1.19c.54.66 1.265 1.6 2.265 2.378 1.925 1.475 4.606 2.354 6.812 1.27zM4.111 26.47l.388 1.425c.063.225.276.359.48.276a.462.462 0 00.265-.538l-.372-1.37c1.419-1.64 2.323-3.413 2.74-4.86.633-1.58.642-2.856.714-2.875 0 0-1.143.3-2.255 1.5-1.032 1.037-2.092 2.994-1.684 5.646-.028-.002-.056-.008-.084-.003-.676-2.585-1.481-4.556-2.3-6.035C1.045 17.99.13 17.05.13 17.05s-.112.449-.092 1.198c-.004.744.046 1.784.224 2.884.508 2.114 1.618 4.517 3.85 5.339zM79.18 4.577a11.511 11.511 0 01-1.219-2.602s1.117.376 2.488 1.469c1.254 1.137 2.705 3.117 2.603 5.708-1.875-1.506-3.112-3.12-3.871-4.575zm7.158 14.968l.073 1.058c.013.225-.14.425-.365.431-.216.018-.41-.165-.423-.383l-.073-1.055c-1.54-.93-2.597-2.259-3.261-3.442-.336-.657-.636-1.248-.852-1.672-.175-.45-.289-.723-.289-.723s1.002.097 2.233.902c.871.665 2.043 1.88 2.477 3.814.003 0 .005-.003.009-.004-.014-1.994.226-3.58.724-4.843.454-1.49 1.11-2.41 1.11-2.41l.274.945c.145.592.334 1.404.278 2.353-.012 1.718-.444 3.734-1.915 5.029z" fill="#fff"/><path d="M85.376 14.066a.4.4 0 01-.26.517c-.204.066-.416-.066-.494-.273l-.332-.975c-1.678-.504-2.772-1.615-3.722-2.526a8.711 8.711 0 01-1.08-1.42c-.258-.372-.427-.59-.427-.59s1.038-.187 2.23.383c.994.434 2.244 1.315 3.06 2.967.008-.003.015-.006.023-.007-.412-1.826-.425-3.342-.258-4.596.26-1.548.615-2.503.615-2.503.137-.135 2.645 4.868.329 8.08l.316.943zm-2.308 18.576c-.291.424-.832 1.194-.874 1.153-.164.17-.424.188-.578.034a.41.41 0 01-.01-.57c.042.031.585-.736.859-1.127-1.415-4.426-.54-7.962-.695-8.2 0 0 1.126.616 1.74 2.03.656 1.234 1.014 3.525-.363 5.823.01.007.019.01.027.017.015.01.022.027.034.039 1.605-2.136 2.973-3.681 4.25-4.89 1.51-1.326 2.53-2.003 2.529-2.009.083-.033-.217 1.99-1.43 4.139-1.117 1.964-3.215 3.649-5.489 3.56z" fill="#fff"/><path d="M78.128 37.314l-2.557 1.603c-.194.13-.445.03-.534-.164-.094-.217 0-.44.183-.562l2.522-1.588c.11-2.446.769-4.435 1.33-5.835.52-1.554 1.143-2.553 1.1-2.598 0 0 .864.996.978 2.708.247 1.612-.451 3.954-2.769 5.716.016.018.034.032.048.053 2.414-1.543 4.558-2.408 6.23-3.162 1.932-.715 3.256-1.009 3.256-1.009s-.18.504-.71 1.19c-.54.66-1.265 1.6-2.265 2.378-1.925 1.475-4.606 2.354-6.812 1.27zm7.76-10.844l-.387 1.425c-.063.225-.276.359-.48.276a.462.462 0 01-.265-.538l.372-1.37c-1.419-1.64-2.323-3.413-2.74-4.86-.633-1.58-.642-2.856-.714-2.875 0 0 1.143.3 2.255 1.5 1.032 1.037 2.092 2.994 1.683 5.646.029-.002.057-.008.085-.003.676-2.585 1.481-4.556 2.3-6.035.959-1.646 1.873-2.586 1.873-2.586s.112.449.092 1.198c.004.744-.046 1.784-.224 2.884-.508 2.114-1.618 4.517-3.85 5.339z" fill="#fff"/></svg>